M48
;Layer_Color=9474304
;FILE_FORMAT=4:4
METRIC,LZ
;TYPE=PLATED
T1F00S00C0.5000
T2F00S00C1.0000
T3F00S00C1.1000
T4F00S00C1.2000
T5F00S00C1.3000
T6F00S00C1.7000
;TYPE=NON_PLATED
T7F00S00C3.2000
%
T01
X00016Y00126
X00161Y00021
X00296
X002535Y001035
X004035Y00136
X00461Y00106
X00576Y00136
Y002135
X00561Y00276
X00541Y00291
X00581Y00441
X004685Y00491
X004385Y00521
X00316Y00476
X003485Y00386
X00401
X004485Y00356
X00481Y00301
X00471Y002635
X00481Y00236
Y00166
X00506
X00521Y001885
X00411Y00246
X003335Y00261
X00316Y002785
X003685Y00301
X00136Y00201
X00031Y00216
Y00181
X003285Y00556
X00331Y006085
X00381Y00626
X003835Y00676
X004035Y007285
X00406Y00771
X00451Y00661
X005135Y006785
X00526Y005735
X00481Y00556
X00441Y00561
Y00551
X00431
Y00561
X004385Y00591
X004235Y00596
X00391Y00556
X005835Y005435
X00591Y00596
X005785Y00626
X00556Y00686
X00656Y005735
T02
X00191Y001682
Y001936
Y00219
Y002444
Y002952
Y003206
Y00346
X00291
Y003206
Y002952
Y002444
Y00219
Y001936
Y001682
X00271Y00426
Y004514
Y004768
Y005276
X00171
Y004768
Y004514
Y00426
Y00553
Y005784
Y006038
X00271
Y005784
Y00553
T03
X002748Y007556
X003002
X003256
X00351
Y00781
X003256
X003002
X002748
X004899
X005153
Y007556
X004899
X005407
X005661
Y00781
X005407
T04
X00146Y00756
Y00781
T05
X00651Y00201
Y00236
Y00271
Y00306
Y00341
Y00376
Y00411
Y00446
T06
X00083Y00372
Y00422
Y00472
Y00522
Y00572
Y00622
T07
X0005Y0005
X0061
X0005Y0075
X0065
M30
