G04*
G04 #@! TF.GenerationSoftware,Altium Limited,Altium Designer,21.3.2 (30)*
G04*
G04 Layer_Color=16711935*
%FSLAX44Y44*%
%MOMM*%
G71*
G04*
G04 #@! TF.SameCoordinates,5F18C444-2927-46CB-AB6B-11653520DC00*
G04*
G04*
G04 #@! TF.FilePolarity,Negative*
G04*
G01*
G75*
%ADD26C,1.0000*%
%ADD40C,1.8000*%
%ADD41R,1.8000X1.8000*%
%ADD42C,3.4000*%
%ADD43C,2.6000*%
%ADD44C,2.2000*%
D26*
X649200Y0D02*
X700000Y50800D01*
X50800Y800000D02*
X649200D01*
X700000Y749200D01*
X50800Y0D02*
X649200D01*
X0Y50800D02*
X50800Y0D01*
X0Y749200D02*
X50800Y800000D01*
X700000Y50800D02*
Y749200D01*
X0Y50800D02*
Y749200D01*
D40*
X566100Y755600D02*
D03*
Y781000D02*
D03*
X540700Y755600D02*
D03*
Y781000D02*
D03*
X515300Y755600D02*
D03*
Y781000D02*
D03*
X489900Y755600D02*
D03*
Y781000D02*
D03*
X351000Y755600D02*
D03*
Y781000D02*
D03*
X325600Y755600D02*
D03*
Y781000D02*
D03*
X300200Y755600D02*
D03*
Y781000D02*
D03*
X274800Y755600D02*
D03*
Y781000D02*
D03*
X171000Y451400D02*
D03*
Y476800D02*
D03*
Y527600D02*
D03*
Y553000D02*
D03*
Y578400D02*
D03*
Y603800D02*
D03*
X271000Y451400D02*
D03*
Y476800D02*
D03*
Y527600D02*
D03*
Y553000D02*
D03*
Y578400D02*
D03*
Y603800D02*
D03*
X291000Y320600D02*
D03*
Y295200D02*
D03*
Y244400D02*
D03*
Y219000D02*
D03*
Y193600D02*
D03*
Y168200D02*
D03*
X191000Y320600D02*
D03*
Y295200D02*
D03*
Y244400D02*
D03*
Y219000D02*
D03*
Y193600D02*
D03*
Y168200D02*
D03*
D41*
X171000Y426000D02*
D03*
X271000D02*
D03*
X291000Y346000D02*
D03*
X191000D02*
D03*
D42*
X83000Y472000D02*
D03*
Y622000D02*
D03*
Y572000D02*
D03*
Y522000D02*
D03*
Y422000D02*
D03*
Y372000D02*
D03*
X650000Y750000D02*
D03*
X610000Y50000D02*
D03*
X50000Y750000D02*
D03*
Y50000D02*
D03*
D43*
X651000Y271000D02*
D03*
Y376000D02*
D03*
Y446000D02*
D03*
Y236000D02*
D03*
Y411000D02*
D03*
Y341000D02*
D03*
Y306000D02*
D03*
Y201000D02*
D03*
D44*
X146000Y756000D02*
D03*
Y781000D02*
D03*
M02*
