G04*
G04 #@! TF.GenerationSoftware,Altium Limited,Altium Designer,21.3.2 (30)*
G04*
G04 Layer_Color=16777215*
%FSLAX44Y44*%
%MOMM*%
G71*
G04*
G04 #@! TF.SameCoordinates,5F18C444-2927-46CB-AB6B-11653520DC00*
G04*
G04*
G04 #@! TF.FilePolarity,Positive*
G04*
G01*
G75*
%ADD10C,0.2500*%
%ADD11C,0.2000*%
%ADD12C,0.1500*%
D10*
X515000Y378550D02*
G03*
X515000Y378550I-1250J0D01*
G01*
X664800Y608250D02*
G03*
X664800Y608250I-1250J0D01*
G01*
X464500Y168450D02*
G03*
X464500Y168450I-1250J0D01*
G01*
X500000Y223550D02*
G03*
X500000Y223550I-1250J0D01*
G01*
X418250Y529000D02*
G03*
X418250Y529000I-1250J0D01*
G01*
X255250Y89500D02*
G03*
X255250Y89500I-1250J0D01*
G01*
X75750Y183000D02*
G03*
X75750Y183000I-1250J0D01*
G01*
X354250Y87500D02*
G03*
X354250Y87500I-1250J0D01*
G01*
D11*
X525000Y326000D02*
Y376000D01*
X557000Y326000D02*
Y376000D01*
X525000D02*
X557000D01*
X525000Y326000D02*
X557000D01*
X611000Y597000D02*
X661000D01*
X611000Y565000D02*
X661000D01*
Y597000D01*
X611000Y565000D02*
Y597000D01*
X452000Y171000D02*
Y221000D01*
X420000Y171000D02*
Y221000D01*
Y171000D02*
X452000D01*
X420000Y221000D02*
X452000D01*
X510000Y171000D02*
Y221000D01*
X542000Y171000D02*
Y221000D01*
X510000D02*
X542000D01*
X510000Y171000D02*
X542000D01*
X468000Y729250D02*
X504000D01*
Y710750D02*
Y729250D01*
X468000Y710750D02*
X504000D01*
X468000D02*
Y729250D01*
X440500Y778500D02*
X457500D01*
X440500Y743500D02*
Y778500D01*
Y743500D02*
X457500D01*
Y778500D01*
X439750Y739000D02*
X458250D01*
Y703000D02*
Y739000D01*
X439750Y703000D02*
X458250D01*
X439750D02*
Y739000D01*
X330000Y550000D02*
Y624900D01*
X320000Y540000D02*
X330000Y550000D01*
Y404900D02*
Y499000D01*
X320000Y509000D02*
X330000Y499000D01*
X481000Y412500D02*
Y429500D01*
X446000D02*
X481000D01*
X446000Y412500D02*
X481000D01*
X446000D02*
Y429500D01*
X411250Y429000D02*
X427250Y445000D01*
X406000Y429000D02*
X411250D01*
X485000Y438000D02*
X493000Y446000D01*
X482000Y438000D02*
X485000D01*
X617000Y169000D02*
Y172000D01*
X609000Y180000D02*
X617000Y172000D01*
X606000Y180000D02*
X609000D01*
X684000Y140750D02*
Y159250D01*
X648000D02*
X684000D01*
X648000Y140750D02*
X684000D01*
X648000D02*
Y159250D01*
X230000Y404900D02*
Y624900D01*
X136000D02*
X230000D01*
X136000Y404900D02*
Y624900D01*
Y404900D02*
X230000D01*
X320000Y509000D02*
Y540000D01*
X236000Y624900D02*
X330000D01*
X236000Y404900D02*
Y624900D01*
Y404900D02*
X330000D01*
X232000Y147100D02*
Y367100D01*
Y147100D02*
X326000D01*
Y367100D01*
X232000D02*
X326000D01*
X132000Y147100D02*
Y367100D01*
Y147100D02*
X226000D01*
Y367100D01*
X132000D02*
X226000D01*
X487250Y572000D02*
X534750D01*
Y540000D02*
Y572000D01*
X487250Y540000D02*
X534750D01*
X487250D02*
Y572000D01*
X502528Y571750D02*
X502675Y540251D01*
X481500Y386750D02*
Y405250D01*
X445500D02*
X481500D01*
X445500Y386750D02*
Y405250D01*
Y386750D02*
X481500D01*
X569000Y436750D02*
Y455250D01*
X533000D02*
X569000D01*
X533000Y436750D02*
Y455250D01*
Y436750D02*
X569000D01*
X514000Y461750D02*
Y480250D01*
X478000D02*
X514000D01*
X478000Y461750D02*
Y480250D01*
Y461750D02*
X514000D01*
X456500Y535500D02*
Y537750D01*
X454250Y535500D02*
X456500D01*
Y574250D02*
Y576500D01*
X454250D02*
X456500D01*
X415500D02*
X417750D01*
X415500Y574250D02*
Y576500D01*
Y535500D02*
Y537750D01*
Y535500D02*
X417750D01*
X157250Y72000D02*
X204750D01*
Y40000D02*
Y72000D01*
X157250Y40000D02*
X204750D01*
X157250D02*
Y72000D01*
X172528Y71750D02*
X172675Y40251D01*
X428500Y602500D02*
X463500D01*
X428500D02*
Y619500D01*
X463500D01*
Y602500D02*
Y619500D01*
X478500Y482500D02*
X513500D01*
X478500D02*
Y499500D01*
X513500D01*
Y482500D02*
Y499500D01*
X343500Y627500D02*
X378500D01*
X343500D02*
Y644500D01*
X378500D01*
Y627500D02*
Y644500D01*
X36500Y652000D02*
X122500D01*
X36500Y342000D02*
X122500D01*
Y295000D02*
Y699000D01*
X36500Y295000D02*
X122500D01*
X36500D02*
Y699000D01*
X122500D01*
X619000Y469500D02*
X694750D01*
Y177500D02*
Y469500D01*
X619000Y177500D02*
X694750D01*
X203500Y12500D02*
Y29500D01*
X168500D02*
X203500D01*
X168500Y12500D02*
Y29500D01*
Y12500D02*
X203500D01*
X253500Y32500D02*
Y49500D01*
X218500D02*
X253500D01*
X218500Y32500D02*
Y49500D01*
Y32500D02*
X253500D01*
X251000Y71500D02*
Y80500D01*
X221000Y71500D02*
Y80500D01*
X251000D01*
X221000Y71500D02*
X251000D01*
X168500Y133500D02*
X183500D01*
X168500Y78500D02*
X183500D01*
X68500Y133500D02*
Y148500D01*
X123500Y133500D02*
Y148500D01*
X30251Y154325D02*
X61750Y154472D01*
X30000Y169750D02*
X62000D01*
X30000Y122250D02*
Y169750D01*
Y122250D02*
X62000D01*
Y169750D01*
X7500Y133500D02*
X24500D01*
Y168500D01*
X7500D02*
X24500D01*
X7500Y133500D02*
Y168500D01*
X6750Y173000D02*
Y209000D01*
X25250D01*
Y173000D02*
Y209000D01*
X6750Y173000D02*
X25250D01*
X56500Y186000D02*
X65500D01*
X56500Y216000D02*
X65500D01*
Y186000D02*
Y216000D01*
X56500Y186000D02*
Y216000D01*
X95251Y224325D02*
X126750Y224472D01*
X95000Y239750D02*
X127000D01*
X95000Y192250D02*
Y239750D01*
Y192250D02*
X127000D01*
Y239750D01*
X48000Y226750D02*
X84000D01*
X48000D02*
Y245250D01*
X84000D01*
Y226750D02*
Y245250D01*
X303500Y12500D02*
Y29500D01*
Y12500D02*
X338500D01*
Y29500D01*
X303500D02*
X338500D01*
X324325Y71749D02*
X324472Y40250D01*
X339750Y40000D02*
Y72000D01*
X292250D02*
X339750D01*
X292250Y40000D02*
Y72000D01*
Y40000D02*
X339750D01*
X396750Y78000D02*
Y114000D01*
X415250D01*
Y78000D02*
Y114000D01*
X396750Y78000D02*
X415250D01*
X356000Y96500D02*
Y105500D01*
X386000Y96500D02*
Y105500D01*
X356000Y96500D02*
X386000D01*
X356000Y105500D02*
X386000D01*
X303500Y133500D02*
X318500D01*
X303500Y78500D02*
X318500D01*
X363000Y126750D02*
X399000D01*
X363000D02*
Y145250D01*
X399000D01*
Y126750D02*
Y145250D01*
X366000Y238500D02*
Y255500D01*
Y238500D02*
X401000D01*
Y255500D01*
X366000D02*
X401000D01*
X418500Y238500D02*
Y255500D01*
Y238500D02*
X453500D01*
Y255500D01*
X418500D02*
X453500D01*
X278500Y377500D02*
Y394500D01*
X243500D02*
X278500D01*
X243500Y377500D02*
Y394500D01*
Y377500D02*
X278500D01*
X194325Y401749D02*
X194472Y370250D01*
X209750Y370000D02*
Y402000D01*
X162250D02*
X209750D01*
X162250Y370000D02*
Y402000D01*
Y370000D02*
X209750D01*
X336750Y423000D02*
Y459000D01*
X355250D01*
Y423000D02*
Y459000D01*
X336750Y423000D02*
X355250D01*
X336750Y463000D02*
Y499000D01*
X355250D01*
Y463000D02*
Y499000D01*
X336750Y463000D02*
X355250D01*
X337500Y503500D02*
X354500D01*
Y538500D01*
X337500D02*
X354500D01*
X337500Y503500D02*
Y538500D01*
X338500Y541500D02*
Y558500D01*
Y541500D02*
X373500D01*
Y558500D01*
X338500D02*
X373500D01*
X375028Y291750D02*
X375175Y260251D01*
X359750Y260000D02*
Y292000D01*
Y260000D02*
X407250D01*
Y292000D01*
X359750D02*
X407250D01*
X427528Y291750D02*
X427675Y260251D01*
X412250Y260000D02*
Y292000D01*
Y260000D02*
X459750D01*
Y292000D01*
X412250D02*
X459750D01*
X452528Y336750D02*
X452675Y305251D01*
X437250Y305000D02*
Y337000D01*
Y305000D02*
X484750D01*
Y337000D01*
X437250D02*
X484750D01*
X361750Y423000D02*
Y459000D01*
X380250D01*
Y423000D02*
Y459000D01*
X361750Y423000D02*
X380250D01*
X442528Y476750D02*
X442675Y445251D01*
X427250Y445000D02*
Y477000D01*
Y445000D02*
X474750D01*
Y477000D01*
X427250D02*
X474750D01*
X388000Y475250D02*
X424000D01*
Y456750D02*
Y475250D01*
X388000Y456750D02*
X424000D01*
X388000D02*
Y475250D01*
X361750Y463000D02*
Y499000D01*
X380250D01*
Y463000D02*
Y499000D01*
X361750Y463000D02*
X380250D01*
X388500Y482500D02*
Y499500D01*
Y482500D02*
X423500D01*
Y499500D01*
X388500D02*
X423500D01*
X428500Y482500D02*
Y499500D01*
Y482500D02*
X463500D01*
Y499500D01*
X428500D02*
X463500D01*
X361750Y503000D02*
Y539000D01*
X380250D01*
Y503000D02*
Y539000D01*
X361750Y503000D02*
X380250D01*
X445250Y127528D02*
X476749Y127675D01*
X445000Y112250D02*
X477000D01*
Y159750D01*
X445000D02*
X477000D01*
X445000Y112250D02*
Y159750D01*
X482500Y118500D02*
X499500D01*
X499500Y153500D02*
X499500Y118500D01*
X482500Y153500D02*
X499500D01*
X482500D02*
X482500Y118500D01*
X508000Y160250D02*
X544000D01*
Y141750D02*
Y160250D01*
X508000Y141750D02*
X544000D01*
X508000D02*
Y160250D01*
X502500Y263500D02*
X519500D01*
X502500Y228500D02*
Y263500D01*
Y228500D02*
X519500D01*
Y263500D01*
X545250Y228000D02*
Y264000D01*
X526750Y228000D02*
X545250D01*
X526750D02*
Y264000D01*
X545250D01*
X495000Y283500D02*
X512000D01*
Y318500D01*
X495000D02*
X512000D01*
X495000Y283500D02*
Y318500D01*
X519250Y283000D02*
Y319000D01*
X537750D01*
Y283000D02*
Y319000D01*
X519250Y283000D02*
X537750D01*
X451000Y347500D02*
Y364500D01*
Y347500D02*
X486000D01*
Y364500D01*
X451000D02*
X486000D01*
X586750Y133000D02*
Y169000D01*
X605250D01*
Y133000D02*
Y169000D01*
X586750Y133000D02*
X605250D01*
X548000Y160250D02*
X584000D01*
Y141750D02*
Y160250D01*
X548000Y141750D02*
X584000D01*
X548000D02*
Y160250D01*
X586750Y170500D02*
Y206500D01*
X605250D01*
Y170500D02*
Y206500D01*
X586750Y170500D02*
X605250D01*
X586750Y208000D02*
Y244000D01*
X605250D01*
Y208000D02*
Y244000D01*
X586750Y208000D02*
X605250D01*
X552500Y263500D02*
X569500D01*
X552500Y228500D02*
Y263500D01*
Y228500D02*
X569500D01*
Y263500D01*
X573500Y247500D02*
Y264500D01*
Y247500D02*
X608500D01*
Y264500D01*
X573500D02*
X608500D01*
X582528Y299250D02*
X582675Y267751D01*
X567250Y267500D02*
Y299500D01*
Y267500D02*
X614750D01*
Y299500D01*
X567250D02*
X614750D01*
X544250Y283000D02*
Y319000D01*
X562750D01*
Y283000D02*
Y319000D01*
X544250Y283000D02*
X562750D01*
X592500Y343500D02*
X609500D01*
X592500Y308500D02*
Y343500D01*
Y308500D02*
X609500D01*
Y343500D01*
X591750Y345500D02*
Y381500D01*
X610250D01*
Y345500D02*
Y381500D01*
X591750Y345500D02*
X610250D01*
X485500Y386750D02*
X521500D01*
X485500D02*
Y405250D01*
X521500D01*
Y386750D02*
Y405250D01*
X525500Y386750D02*
X561500D01*
X525500D02*
Y405250D01*
X561500D01*
Y386750D02*
Y405250D01*
X521000Y412500D02*
Y429500D01*
X486000D02*
X521000D01*
X486000Y412500D02*
Y429500D01*
Y412500D02*
X521000D01*
X561000D02*
Y429500D01*
X526000D02*
X561000D01*
X526000Y412500D02*
Y429500D01*
Y412500D02*
X561000D01*
X493000Y455250D02*
X529000D01*
Y436750D02*
Y455250D01*
X493000Y436750D02*
X529000D01*
X493000D02*
Y455250D01*
X521750Y463000D02*
Y499000D01*
X540250D01*
Y463000D02*
Y499000D01*
X521750Y463000D02*
X540250D01*
X499500Y538500D02*
X516500D01*
X499500Y503500D02*
Y538500D01*
Y503500D02*
X516500D01*
Y538500D01*
X521750Y503000D02*
Y539000D01*
X540250D01*
Y503000D02*
Y539000D01*
X521750Y503000D02*
X540250D01*
X573500Y385000D02*
Y402000D01*
Y385000D02*
X608500D01*
Y402000D01*
X573500D02*
X608500D01*
X582528Y436750D02*
X582675Y405251D01*
X567250Y405000D02*
Y437000D01*
Y405000D02*
X614750D01*
Y437000D01*
X567250D02*
X614750D01*
X546750Y463000D02*
Y499000D01*
X565250D01*
Y463000D02*
Y499000D01*
X546750Y463000D02*
X565250D01*
X671750Y488000D02*
Y524000D01*
X690250D01*
Y488000D02*
Y524000D01*
X671750Y488000D02*
X690250D01*
X597500Y488500D02*
X614500D01*
Y523500D01*
X597500D02*
X614500D01*
X597500Y488500D02*
Y523500D01*
X590250Y488000D02*
Y524000D01*
X571750Y488000D02*
X590250D01*
X571750D02*
Y524000D01*
X590250D01*
X621750Y488000D02*
Y524000D01*
X640250D01*
Y488000D02*
Y524000D01*
X621750Y488000D02*
X640250D01*
X665250D02*
Y524000D01*
X646750Y488000D02*
X665250D01*
X646750D02*
Y524000D01*
X665250D01*
X545250Y547528D02*
X576749Y547675D01*
X545000Y532250D02*
X577000D01*
Y579750D01*
X545000D02*
X577000D01*
X545000Y532250D02*
Y579750D01*
X674500Y578500D02*
X691500D01*
X674500Y543500D02*
Y578500D01*
Y543500D02*
X691500D01*
Y578500D01*
X581500Y548500D02*
X598500D01*
Y583500D01*
X581500D02*
X598500D01*
X581500Y548500D02*
Y583500D01*
X355028Y590750D02*
X355175Y559251D01*
X339750Y559000D02*
Y591000D01*
Y559000D02*
X387250D01*
Y591000D01*
X339750D02*
X387250D01*
X178500Y668500D02*
Y683500D01*
X233500Y668500D02*
Y683500D01*
X268500Y668500D02*
Y683500D01*
X323500Y668500D02*
Y683500D01*
X336750Y648000D02*
Y684000D01*
X355250D01*
Y648000D02*
Y684000D01*
X336750Y648000D02*
X355250D01*
X377750D02*
Y684000D01*
X359250Y648000D02*
X377750D01*
X359250D02*
Y684000D01*
X377750D01*
X367750Y705028D02*
X399249Y705175D01*
X367500Y689750D02*
X399500D01*
Y737250D01*
X367500D02*
X399500D01*
X367500Y689750D02*
Y737250D01*
X444325Y656749D02*
X444472Y625250D01*
X459750Y625000D02*
Y657000D01*
X412250D02*
X459750D01*
X412250Y625000D02*
Y657000D01*
Y625000D02*
X459750D01*
X416750Y703000D02*
Y739000D01*
X435250D01*
Y703000D02*
Y739000D01*
X416750Y703000D02*
X435250D01*
X417500Y743500D02*
X434500D01*
Y778500D01*
X417500D02*
X434500D01*
X417500Y743500D02*
Y778500D01*
X502528Y626750D02*
X502675Y595251D01*
X487250Y595000D02*
Y627000D01*
Y595000D02*
X534750D01*
Y627000D01*
X487250D02*
X534750D01*
X510250Y650500D02*
Y686500D01*
X491750Y650500D02*
X510250D01*
X491750D02*
Y686500D01*
X510250D01*
X498500Y575000D02*
Y592000D01*
Y575000D02*
X533500D01*
Y592000D01*
X498500D02*
X533500D01*
Y630000D02*
Y647000D01*
X498500D02*
X533500D01*
X498500Y630000D02*
Y647000D01*
Y630000D02*
X533500D01*
X516750Y650500D02*
Y686500D01*
X535250D01*
Y650500D02*
Y686500D01*
X516750Y650500D02*
X535250D01*
X565250Y643000D02*
Y679000D01*
X546750Y643000D02*
X565250D01*
X546750D02*
Y679000D01*
X565250D01*
X545250Y602528D02*
X576749Y602675D01*
X545000Y587250D02*
X577000D01*
Y634750D01*
X545000D02*
X577000D01*
X545000Y587250D02*
Y634750D01*
X572500Y678500D02*
X589500D01*
X572500Y643500D02*
Y678500D01*
Y643500D02*
X589500D01*
Y678500D01*
X581500Y598500D02*
X598500D01*
Y633500D01*
X581500D02*
X598500D01*
X581500Y598500D02*
Y633500D01*
X596750Y643000D02*
Y679000D01*
X615250D01*
Y643000D02*
Y679000D01*
X596750Y643000D02*
X615250D01*
X621750D02*
Y679000D01*
X640250D01*
Y643000D02*
Y679000D01*
X621750Y643000D02*
X640250D01*
X665250D02*
Y679000D01*
X646750Y643000D02*
X665250D01*
X646750D02*
Y679000D01*
X665250D01*
X673750Y598000D02*
Y634000D01*
X692250D01*
Y598000D02*
Y634000D01*
X673750Y598000D02*
X692250D01*
X672500Y678500D02*
X689500D01*
X672500Y643500D02*
Y678500D01*
Y643500D02*
X689500D01*
Y678500D01*
X468000Y707750D02*
X504000D01*
Y689250D02*
Y707750D01*
X468000Y689250D02*
X504000D01*
X468000D02*
Y707750D01*
X543500Y711500D02*
Y728500D01*
X508500D02*
X543500D01*
X508500Y711500D02*
Y728500D01*
Y711500D02*
X543500D01*
X508500Y690000D02*
Y707000D01*
Y690000D02*
X543500D01*
Y707000D01*
X508500D02*
X543500D01*
X371825Y623749D02*
X371972Y592250D01*
X387250Y592000D02*
Y624000D01*
X339750D02*
X387250D01*
X339750Y592000D02*
Y624000D01*
Y592000D02*
X387250D01*
X374000Y784903D02*
X375047Y785426D01*
X376618Y786998D01*
Y776000D01*
X589000Y784903D02*
X590047Y785426D01*
X591618Y786998D01*
Y776000D01*
X167808Y762663D02*
X161000D01*
Y751666D01*
X167808D01*
X161000Y757427D02*
X165190D01*
X169641Y762663D02*
X176973Y751666D01*
Y762663D02*
X169641Y751666D01*
X179434Y748000D02*
X187813D01*
X197083Y760045D02*
X196559Y761092D01*
X195512Y762140D01*
X194464Y762663D01*
X192369D01*
X191322Y762140D01*
X190275Y761092D01*
X189751Y760045D01*
X189227Y758474D01*
Y755855D01*
X189751Y754284D01*
X190275Y753237D01*
X191322Y752190D01*
X192369Y751666D01*
X194464D01*
X195512Y752190D01*
X196559Y753237D01*
X197083Y754284D01*
Y755855D01*
X194464D02*
X197083D01*
X199597Y762663D02*
Y751666D01*
Y762663D02*
X206928Y751666D01*
Y762663D02*
Y751666D01*
X209966Y762663D02*
Y751666D01*
Y762663D02*
X213632D01*
X215203Y762140D01*
X216250Y761092D01*
X216774Y760045D01*
X217297Y758474D01*
Y755855D01*
X216774Y754284D01*
X216250Y753237D01*
X215203Y752190D01*
X213632Y751666D01*
X209966D01*
X679097Y168000D02*
X678573Y169047D01*
X677002Y170618D01*
X688000D01*
X169855Y783379D02*
X169332Y784426D01*
X168284Y785474D01*
X167237Y785998D01*
X165142D01*
X164095Y785474D01*
X163047Y784426D01*
X162524Y783379D01*
X162000Y781808D01*
Y779190D01*
X162524Y777618D01*
X163047Y776571D01*
X164095Y775524D01*
X165142Y775000D01*
X167237D01*
X168284Y775524D01*
X169332Y776571D01*
X169855Y777618D01*
Y779190D01*
X167237D02*
X169855D01*
X172369Y785998D02*
Y775000D01*
Y785998D02*
X179701Y775000D01*
Y785998D02*
Y775000D01*
X182738Y785998D02*
Y775000D01*
Y785998D02*
X186404D01*
X187975Y785474D01*
X189023Y784426D01*
X189547Y783379D01*
X190070Y781808D01*
Y779190D01*
X189547Y777618D01*
X189023Y776571D01*
X187975Y775524D01*
X186404Y775000D01*
X182738D01*
X18002Y511666D02*
X29000D01*
X18002Y508000D02*
Y515332D01*
Y516641D02*
X29000Y523973D01*
X18002D02*
X29000Y516641D01*
X19573Y531147D02*
X29000D01*
X24287Y526434D02*
Y535861D01*
X18002Y462666D02*
X29000D01*
X18002Y459000D02*
Y466332D01*
Y467641D02*
X29000Y474973D01*
X18002D02*
X29000Y467641D01*
X24287Y477434D02*
Y486861D01*
X19002Y357000D02*
X30000D01*
X19002D02*
Y361713D01*
X19526Y363284D01*
X20050Y363808D01*
X21097Y364332D01*
X22144D01*
X23192Y363808D01*
X23716Y363284D01*
X24239Y361713D01*
Y357000D01*
Y360666D02*
X30000Y364332D01*
X19002Y366793D02*
X30000Y374125D01*
X19002D02*
X30000Y366793D01*
X25287Y376586D02*
Y386013D01*
X20002Y411000D02*
X31000D01*
X20002D02*
Y415713D01*
X20526Y417284D01*
X21050Y417808D01*
X22097Y418332D01*
X23145D01*
X24192Y417808D01*
X24716Y417284D01*
X25239Y415713D01*
Y411000D01*
Y414666D02*
X31000Y418332D01*
X20002Y420793D02*
X31000Y428125D01*
X20002D02*
X31000Y420793D01*
X21573Y435299D02*
X31000D01*
X26287Y430586D02*
Y440013D01*
X651338Y124502D02*
Y135498D01*
X656836D01*
X658669Y133666D01*
Y130000D01*
X656836Y128167D01*
X651338D01*
X655004D02*
X658669Y124502D01*
X667833D02*
Y135498D01*
X662335Y130000D01*
X669666D01*
X680662Y135498D02*
X676996Y133666D01*
X673331Y130000D01*
Y126334D01*
X675164Y124502D01*
X678829D01*
X680662Y126334D01*
Y128167D01*
X678829Y130000D01*
X673331D01*
X157502Y631589D02*
X168498D01*
Y637087D01*
X166665Y638920D01*
X159334D01*
X157502Y637087D01*
Y631589D01*
X168498Y642585D02*
X161167D01*
X157502Y646251D01*
X161167Y649916D01*
X168498D01*
X163000D01*
Y642585D01*
X168498Y653582D02*
Y657247D01*
Y655415D01*
X157502D01*
X159334Y653582D01*
X168498Y662746D02*
Y666411D01*
Y664578D01*
X157502D01*
X159334Y662746D01*
X160502Y685836D02*
X171498D01*
Y693167D01*
X160502Y704164D02*
Y696833D01*
X166000D01*
X164167Y700498D01*
Y702331D01*
X166000Y704164D01*
X169666D01*
X171498Y702331D01*
Y698665D01*
X169666Y696833D01*
X382338Y353502D02*
Y364498D01*
X387836D01*
X389669Y362665D01*
Y359000D01*
X387836Y357167D01*
X382338D01*
X386003D02*
X389669Y353502D01*
X393335Y362665D02*
X395167Y364498D01*
X398833D01*
X400666Y362665D01*
Y360833D01*
X398833Y359000D01*
X397000D01*
X398833D01*
X400666Y357167D01*
Y355335D01*
X398833Y353502D01*
X395167D01*
X393335Y355335D01*
X404331Y364498D02*
X411662D01*
Y362665D01*
X404331Y355335D01*
Y353502D01*
X389669Y378666D02*
X387836Y380498D01*
X384171D01*
X382338Y378666D01*
Y371334D01*
X384171Y369502D01*
X387836D01*
X389669Y371334D01*
X398833Y369502D02*
Y380498D01*
X393335Y375000D01*
X400666D01*
X411662Y380498D02*
X407996Y378666D01*
X404331Y375000D01*
Y371334D01*
X406164Y369502D01*
X409829D01*
X411662Y371334D01*
Y373167D01*
X409829Y375000D01*
X404331D01*
X101836Y714498D02*
X109167Y703502D01*
Y714498D02*
X101836Y703502D01*
X118331D02*
Y714498D01*
X112833Y709000D01*
X120164D01*
X397331Y588666D02*
X395498Y590498D01*
X391833D01*
X390000Y588666D01*
Y581334D01*
X391833Y579502D01*
X395498D01*
X397331Y581334D01*
X408327Y590498D02*
X400997D01*
Y585000D01*
X404662Y586833D01*
X406495D01*
X408327Y585000D01*
Y581334D01*
X406495Y579502D01*
X402829D01*
X400997Y581334D01*
X419324Y590498D02*
X411993D01*
Y585000D01*
X415658Y586833D01*
X417491D01*
X419324Y585000D01*
Y581334D01*
X417491Y579502D01*
X413826D01*
X411993Y581334D01*
X30502Y220338D02*
X41498D01*
Y225836D01*
X39666Y227669D01*
X32334D01*
X30502Y225836D01*
Y220338D01*
X41498Y231334D02*
X34167D01*
X30502Y235000D01*
X34167Y238666D01*
X41498D01*
X36000D01*
Y231334D01*
X30502Y242331D02*
Y249662D01*
X32334D01*
X39666Y242331D01*
X41498D01*
X404338Y129502D02*
Y140498D01*
X409836D01*
X411669Y138666D01*
Y135000D01*
X409836Y133167D01*
X404338D01*
X408004D02*
X411669Y129502D01*
X415335Y138666D02*
X417167Y140498D01*
X420833D01*
X422665Y138666D01*
Y136833D01*
X420833Y135000D01*
X419000D01*
X420833D01*
X422665Y133167D01*
Y131334D01*
X420833Y129502D01*
X417167D01*
X415335Y131334D01*
X433662Y140498D02*
X429996Y138666D01*
X426331Y135000D01*
Y131334D01*
X428164Y129502D01*
X431829D01*
X433662Y131334D01*
Y133167D01*
X431829Y135000D01*
X426331D01*
X370502Y305665D02*
X368669Y307498D01*
X365004D01*
X363171Y305665D01*
Y298335D01*
X365004Y296502D01*
X368669D01*
X370502Y298335D01*
X381498Y296502D02*
X374167D01*
X381498Y303833D01*
Y305665D01*
X379665Y307498D01*
X376000D01*
X374167Y305665D01*
X385164Y296502D02*
X388829D01*
X386996D01*
Y307498D01*
X385164Y305665D01*
X384502Y170000D02*
X395498D01*
Y175498D01*
X393666Y177331D01*
X386334D01*
X384502Y175498D01*
Y170000D01*
X395498Y180996D02*
X388167D01*
X384502Y184662D01*
X388167Y188327D01*
X395498D01*
X390000D01*
Y180996D01*
X395498Y191993D02*
Y195658D01*
Y193826D01*
X384502D01*
X386334Y191993D01*
X395498Y208488D02*
Y201157D01*
X388167Y208488D01*
X386334D01*
X384502Y206655D01*
Y202989D01*
X386334Y201157D01*
X397331Y603666D02*
X395498Y605498D01*
X391833D01*
X390000Y603666D01*
Y596334D01*
X391833Y594502D01*
X395498D01*
X397331Y596334D01*
X400997D02*
X402829Y594502D01*
X406495D01*
X408327Y596334D01*
Y603666D01*
X406495Y605498D01*
X402829D01*
X400997Y603666D01*
Y601833D01*
X402829Y600000D01*
X408327D01*
X391167Y639665D02*
X389334Y641498D01*
X385669D01*
X383836Y639665D01*
Y632335D01*
X385669Y630502D01*
X389334D01*
X391167Y632335D01*
X394833Y639665D02*
X396665Y641498D01*
X400331D01*
X402164Y639665D01*
Y637833D01*
X400331Y636000D01*
X402164Y634167D01*
Y632335D01*
X400331Y630502D01*
X396665D01*
X394833Y632335D01*
Y634167D01*
X396665Y636000D01*
X394833Y637833D01*
Y639665D01*
X396665Y636000D02*
X400331D01*
X384669Y553666D02*
X382836Y555498D01*
X379171D01*
X377338Y553666D01*
Y546334D01*
X379171Y544502D01*
X382836D01*
X384669Y546334D01*
X395666Y544502D02*
X388335D01*
X395666Y551833D01*
Y553666D01*
X393833Y555498D01*
X390167D01*
X388335Y553666D01*
X406662Y544502D02*
X399331D01*
X406662Y551833D01*
Y553666D01*
X404829Y555498D01*
X401164D01*
X399331Y553666D01*
X434038Y78798D02*
X423042D01*
Y84296D01*
X424874Y86129D01*
X428540D01*
X430373Y84296D01*
Y78798D01*
Y82464D02*
X434038Y86129D01*
X424874Y89795D02*
X423042Y91627D01*
Y95293D01*
X424874Y97126D01*
X426707D01*
X428540Y95293D01*
Y93460D01*
Y95293D01*
X430373Y97126D01*
X432206D01*
X434038Y95293D01*
Y91627D01*
X432206Y89795D01*
X424874Y100791D02*
X423042Y102624D01*
Y106289D01*
X424874Y108122D01*
X426707D01*
X428540Y106289D01*
Y104456D01*
Y106289D01*
X430373Y108122D01*
X432206D01*
X434038Y106289D01*
Y102624D01*
X432206Y100791D01*
X416338Y353502D02*
Y364498D01*
X421836D01*
X423669Y362665D01*
Y359000D01*
X421836Y357167D01*
X416338D01*
X420004D02*
X423669Y353502D01*
X427335Y362665D02*
X429167Y364498D01*
X432833D01*
X434665Y362665D01*
Y360833D01*
X432833Y359000D01*
X431000D01*
X432833D01*
X434665Y357167D01*
Y355335D01*
X432833Y353502D01*
X429167D01*
X427335Y355335D01*
X438331D02*
X440164Y353502D01*
X443829D01*
X445662Y355335D01*
Y362665D01*
X443829Y364498D01*
X440164D01*
X438331Y362665D01*
Y360833D01*
X440164Y359000D01*
X445662D01*
X423669Y378666D02*
X421836Y380498D01*
X418171D01*
X416338Y378666D01*
Y371334D01*
X418171Y369502D01*
X421836D01*
X423669Y371334D01*
X432833Y369502D02*
Y380498D01*
X427335Y375000D01*
X434665D01*
X438331Y378666D02*
X440164Y380498D01*
X443829D01*
X445662Y378666D01*
Y376833D01*
X443829Y375000D01*
X445662Y373167D01*
Y371334D01*
X443829Y369502D01*
X440164D01*
X438331Y371334D01*
Y373167D01*
X440164Y375000D01*
X438331Y376833D01*
Y378666D01*
X440164Y375000D02*
X443829D01*
X566669Y735666D02*
X564836Y737498D01*
X561171D01*
X559338Y735666D01*
Y728335D01*
X561171Y726502D01*
X564836D01*
X566669Y728335D01*
X575833Y726502D02*
Y737498D01*
X570335Y732000D01*
X577665D01*
X581331Y728335D02*
X583164Y726502D01*
X586829D01*
X588662Y728335D01*
Y735666D01*
X586829Y737498D01*
X583164D01*
X581331Y735666D01*
Y733833D01*
X583164Y732000D01*
X588662D01*
X579334Y689331D02*
X577502Y687498D01*
Y683833D01*
X579334Y682000D01*
X586665D01*
X588498Y683833D01*
Y687498D01*
X586665Y689331D01*
X588498Y700327D02*
Y692997D01*
X581167Y700327D01*
X579334D01*
X577502Y698495D01*
Y694829D01*
X579334Y692997D01*
X588498Y709491D02*
X577502D01*
X583000Y703993D01*
Y711324D01*
X661498Y682000D02*
X650502D01*
Y687498D01*
X652335Y689331D01*
X656000D01*
X657833Y687498D01*
Y682000D01*
Y685666D02*
X661498Y689331D01*
Y700327D02*
Y692997D01*
X654167Y700327D01*
X652335D01*
X650502Y698495D01*
Y694829D01*
X652335Y692997D01*
Y703993D02*
X650502Y705826D01*
Y709491D01*
X652335Y711324D01*
X659666D01*
X661498Y709491D01*
Y705826D01*
X659666Y703993D01*
X652335D01*
X630502Y152836D02*
X641498Y160167D01*
X630502D02*
X641498Y152836D01*
Y171164D02*
Y163833D01*
X634167Y171164D01*
X632335D01*
X630502Y169331D01*
Y165665D01*
X632335Y163833D01*
X120836Y94498D02*
Y83502D01*
X128167D01*
X139164D02*
X131833D01*
X139164Y90833D01*
Y92666D01*
X137331Y94498D01*
X133666D01*
X131833Y92666D01*
X254296Y123958D02*
Y112962D01*
X261627D01*
X265293Y122126D02*
X267125Y123958D01*
X270791D01*
X272624Y122126D01*
Y120293D01*
X270791Y118460D01*
X268958D01*
X270791D01*
X272624Y116627D01*
Y114795D01*
X270791Y112962D01*
X267125D01*
X265293Y114795D01*
X392498Y648836D02*
X381502D01*
Y654335D01*
X383335Y656167D01*
X387000D01*
X388833Y654335D01*
Y648836D01*
Y652502D02*
X392498Y656167D01*
X381502Y667164D02*
Y659833D01*
X387000D01*
X385167Y663498D01*
Y665331D01*
X387000Y667164D01*
X390665D01*
X392498Y665331D01*
Y661665D01*
X390665Y659833D01*
X349498Y688254D02*
X338502D01*
Y693753D01*
X340335Y695585D01*
X344000D01*
X345833Y693753D01*
Y688254D01*
Y691920D02*
X349498Y695585D01*
Y699251D02*
Y702916D01*
Y701084D01*
X338502D01*
X340335Y699251D01*
X338502Y715746D02*
Y708415D01*
X344000D01*
X342167Y712080D01*
Y713913D01*
X344000Y715746D01*
X347665D01*
X349498Y713913D01*
Y710247D01*
X347665Y708415D01*
X352498Y378673D02*
X341502D01*
Y384171D01*
X343335Y386003D01*
X347000D01*
X348833Y384171D01*
Y378673D01*
Y382338D02*
X352498Y386003D01*
Y397000D02*
Y389669D01*
X345167Y397000D01*
X343335D01*
X341502Y395167D01*
Y391502D01*
X343335Y389669D01*
X251502Y686836D02*
X262498D01*
Y694167D01*
Y703331D02*
X251502D01*
X257000Y697833D01*
Y705164D01*
X42334Y93669D02*
X40502Y91836D01*
Y88171D01*
X42334Y86338D01*
X49665D01*
X51498Y88171D01*
Y91836D01*
X49665Y93669D01*
X51498Y102833D02*
X40502D01*
X46000Y97334D01*
Y104665D01*
X51498Y115662D02*
Y108331D01*
X44167Y115662D01*
X42334D01*
X40502Y113829D01*
Y110164D01*
X42334Y108331D01*
X413498Y708338D02*
X402502D01*
Y713836D01*
X404334Y715669D01*
X408000D01*
X409833Y713836D01*
Y708338D01*
Y712004D02*
X413498Y715669D01*
Y726665D02*
Y719334D01*
X406167Y726665D01*
X404334D01*
X402502Y724833D01*
Y721167D01*
X404334Y719334D01*
X402502Y737662D02*
X404334Y733996D01*
X408000Y730331D01*
X411665D01*
X413498Y732164D01*
Y735829D01*
X411665Y737662D01*
X409833D01*
X408000Y735829D01*
Y730331D01*
X473671Y731002D02*
Y740998D01*
X478669D01*
X480336Y739332D01*
Y736000D01*
X478669Y734334D01*
X473671D01*
X477003D02*
X480336Y731002D01*
X490332D02*
X483668D01*
X490332Y737666D01*
Y739332D01*
X488666Y740998D01*
X485334D01*
X483668Y739332D01*
X500329Y740998D02*
X493665D01*
Y736000D01*
X496997Y737666D01*
X498663D01*
X500329Y736000D01*
Y732668D01*
X498663Y731002D01*
X495331D01*
X493665Y732668D01*
X518335Y737332D02*
X516669Y738998D01*
X513337D01*
X511671Y737332D01*
Y730668D01*
X513337Y729002D01*
X516669D01*
X518335Y730668D01*
X528332Y738998D02*
X521668D01*
Y734000D01*
X525000Y735666D01*
X526666D01*
X528332Y734000D01*
Y730668D01*
X526666Y729002D01*
X523334D01*
X521668Y730668D01*
X531665Y737332D02*
X533331Y738998D01*
X536663D01*
X538329Y737332D01*
Y730668D01*
X536663Y729002D01*
X533331D01*
X531665Y730668D01*
Y737332D01*
X620335Y413669D02*
X618502Y411836D01*
Y408171D01*
X620335Y406338D01*
X627665D01*
X629498Y408171D01*
Y411836D01*
X627665Y413669D01*
X618502Y424665D02*
Y417335D01*
X624000D01*
X622167Y421000D01*
Y422833D01*
X624000Y424665D01*
X627665D01*
X629498Y422833D01*
Y419167D01*
X627665Y417335D01*
X620335Y428331D02*
X618502Y430164D01*
Y433829D01*
X620335Y435662D01*
X622167D01*
X624000Y433829D01*
Y431996D01*
Y433829D01*
X625833Y435662D01*
X627665D01*
X629498Y433829D01*
Y430164D01*
X627665Y428331D01*
X419669Y422665D02*
X417836Y424498D01*
X414171D01*
X412338Y422665D01*
Y415335D01*
X414171Y413502D01*
X417836D01*
X419669Y415335D01*
X428833Y413502D02*
Y424498D01*
X423335Y419000D01*
X430666D01*
X434331Y424498D02*
X441662D01*
Y422665D01*
X434331Y415335D01*
Y413502D01*
X453504Y432002D02*
Y441998D01*
X458502D01*
X460168Y440332D01*
Y437000D01*
X458502Y435334D01*
X453504D01*
X456836D02*
X460168Y432002D01*
X463501D02*
X466833D01*
X465167D01*
Y441998D01*
X463501Y440332D01*
X478496Y432002D02*
X471832D01*
X478496Y438666D01*
Y440332D01*
X476830Y441998D01*
X473498D01*
X471832Y440332D01*
X611498Y455338D02*
X600502D01*
Y460836D01*
X602335Y462669D01*
X606000D01*
X607833Y460836D01*
Y455338D01*
Y459004D02*
X611498Y462669D01*
Y473666D02*
Y466334D01*
X604167Y473666D01*
X602335D01*
X600502Y471833D01*
Y468167D01*
X602335Y466334D01*
X611498Y482829D02*
X600502D01*
X606000Y477331D01*
Y484662D01*
X643338Y528502D02*
Y539498D01*
X648836D01*
X650669Y537665D01*
Y534000D01*
X648836Y532167D01*
X643338D01*
X647004D02*
X650669Y528502D01*
X661665D02*
X654334D01*
X661665Y535833D01*
Y537665D01*
X659833Y539498D01*
X656167D01*
X654334Y537665D01*
X665331D02*
X667164Y539498D01*
X670829D01*
X672662Y537665D01*
Y535833D01*
X670829Y534000D01*
X672662Y532167D01*
Y530335D01*
X670829Y528502D01*
X667164D01*
X665331Y530335D01*
Y532167D01*
X667164Y534000D01*
X665331Y535833D01*
Y537665D01*
X667164Y534000D02*
X670829D01*
X665338Y472502D02*
Y483498D01*
X670836D01*
X672669Y481665D01*
Y478000D01*
X670836Y476167D01*
X665338D01*
X669004D02*
X672669Y472502D01*
X683665D02*
X676335D01*
X683665Y479833D01*
Y481665D01*
X681833Y483498D01*
X678167D01*
X676335Y481665D01*
X687331Y474334D02*
X689164Y472502D01*
X692829D01*
X694662Y474334D01*
Y481665D01*
X692829Y483498D01*
X689164D01*
X687331Y481665D01*
Y479833D01*
X689164Y478000D01*
X694662D01*
X458585Y530666D02*
X456753Y532498D01*
X453087D01*
X451254Y530666D01*
Y523335D01*
X453087Y521502D01*
X456753D01*
X458585Y523335D01*
X462251Y521502D02*
X465916D01*
X464084D01*
Y532498D01*
X462251Y530666D01*
X471415D02*
X473247Y532498D01*
X476913D01*
X478746Y530666D01*
Y523335D01*
X476913Y521502D01*
X473247D01*
X471415Y523335D01*
Y530666D01*
X452254Y505502D02*
Y516498D01*
X457753D01*
X459585Y514665D01*
Y511000D01*
X457753Y509167D01*
X452254D01*
X455920D02*
X459585Y505502D01*
X463251D02*
X466916D01*
X465084D01*
Y516498D01*
X463251Y514665D01*
X477913Y505502D02*
Y516498D01*
X472415Y511000D01*
X479746D01*
X437167Y513666D02*
X435335Y515498D01*
X431669D01*
X429836Y513666D01*
Y506334D01*
X431669Y504502D01*
X435335D01*
X437167Y506334D01*
X446331Y504502D02*
Y515498D01*
X440833Y510000D01*
X448164D01*
X487335Y514585D02*
X485502Y512753D01*
Y509087D01*
X487335Y507254D01*
X494665D01*
X496498Y509087D01*
Y512753D01*
X494665Y514585D01*
X496498Y518251D02*
Y521916D01*
Y520084D01*
X485502D01*
X487335Y518251D01*
X485502Y534746D02*
X487335Y531080D01*
X491000Y527415D01*
X494665D01*
X496498Y529247D01*
Y532913D01*
X494665Y534746D01*
X492833D01*
X491000Y532913D01*
Y527415D01*
X437171Y596498D02*
Y585502D01*
X442669D01*
X444502Y587335D01*
Y594665D01*
X442669Y596498D01*
X437171D01*
X448167Y585502D02*
Y592833D01*
X451833Y596498D01*
X455498Y592833D01*
Y585502D01*
Y591000D01*
X448167D01*
X459164Y585502D02*
X462829D01*
X460996D01*
Y596498D01*
X459164Y594665D01*
X484167Y587665D02*
X482335Y589498D01*
X478669D01*
X476836Y587665D01*
Y580335D01*
X478669Y578502D01*
X482335D01*
X484167Y580335D01*
X487833Y587665D02*
X489665Y589498D01*
X493331D01*
X495164Y587665D01*
Y585833D01*
X493331Y584000D01*
X491498D01*
X493331D01*
X495164Y582167D01*
Y580335D01*
X493331Y578502D01*
X489665D01*
X487833Y580335D01*
X471627Y564626D02*
X469795Y566458D01*
X466129D01*
X464296Y564626D01*
Y557295D01*
X466129Y555462D01*
X469795D01*
X471627Y557295D01*
X482624Y555462D02*
X475293D01*
X482624Y562793D01*
Y564626D01*
X480791Y566458D01*
X477126D01*
X475293Y564626D01*
X395335Y405669D02*
X393502Y403836D01*
Y400171D01*
X395335Y398338D01*
X402665D01*
X404498Y400171D01*
Y403836D01*
X402665Y405669D01*
X395335Y409334D02*
X393502Y411167D01*
Y414833D01*
X395335Y416665D01*
X397167D01*
X399000Y414833D01*
Y413000D01*
Y414833D01*
X400833Y416665D01*
X402665D01*
X404498Y414833D01*
Y411167D01*
X402665Y409334D01*
X393502Y427662D02*
X395335Y423997D01*
X399000Y420331D01*
X402665D01*
X404498Y422164D01*
Y425829D01*
X402665Y427662D01*
X400833D01*
X399000Y425829D01*
Y420331D01*
X488498Y656000D02*
X477502D01*
Y661498D01*
X479334Y663331D01*
X483000D01*
X484833Y661498D01*
Y656000D01*
Y659666D02*
X488498Y663331D01*
Y666996D02*
Y670662D01*
Y668829D01*
X477502D01*
X479334Y666996D01*
X488498Y676160D02*
Y679826D01*
Y677993D01*
X477502D01*
X479334Y676160D01*
X474498Y656000D02*
X463502D01*
Y661498D01*
X465335Y663331D01*
X469000D01*
X470833Y661498D01*
Y656000D01*
Y659666D02*
X474498Y663331D01*
Y666997D02*
Y670662D01*
Y668829D01*
X463502D01*
X465335Y666997D01*
X463502Y683491D02*
X465335Y679826D01*
X469000Y676160D01*
X472665D01*
X474498Y677993D01*
Y681658D01*
X472665Y683491D01*
X470833D01*
X469000Y681658D01*
Y676160D01*
X419585Y669666D02*
X417753Y671498D01*
X414087D01*
X412254Y669666D01*
Y662335D01*
X414087Y660502D01*
X417753D01*
X419585Y662335D01*
X423251Y660502D02*
X426916D01*
X425084D01*
Y671498D01*
X423251Y669666D01*
X439746Y660502D02*
X432415D01*
X439746Y667833D01*
Y669666D01*
X437913Y671498D01*
X434247D01*
X432415Y669666D01*
X560668Y508164D02*
X559002Y506498D01*
Y503166D01*
X560668Y501500D01*
X567332D01*
X568998Y503166D01*
Y506498D01*
X567332Y508164D01*
X568998Y518161D02*
Y511497D01*
X562334Y518161D01*
X560668D01*
X559002Y516495D01*
Y513163D01*
X560668Y511497D01*
Y521493D02*
X559002Y523160D01*
Y526492D01*
X560668Y528158D01*
X567332D01*
X568998Y526492D01*
Y523160D01*
X567332Y521493D01*
X560668D01*
X537335Y610669D02*
X535502Y608836D01*
Y605171D01*
X537335Y603338D01*
X544665D01*
X546498Y605171D01*
Y608836D01*
X544665Y610669D01*
X537335Y614334D02*
X535502Y616167D01*
Y619833D01*
X537335Y621665D01*
X539167D01*
X541000Y619833D01*
Y618000D01*
Y619833D01*
X542833Y621665D01*
X544665D01*
X546498Y619833D01*
Y616167D01*
X544665Y614334D01*
X535502Y632662D02*
Y625331D01*
X541000D01*
X539167Y628997D01*
Y630829D01*
X541000Y632662D01*
X544665D01*
X546498Y630829D01*
Y627164D01*
X544665Y625331D01*
X601668Y555168D02*
X600002Y553502D01*
Y550170D01*
X601668Y548504D01*
X608332D01*
X609998Y550170D01*
Y553502D01*
X608332Y555168D01*
X609998Y558501D02*
Y561833D01*
Y560167D01*
X600002D01*
X601668Y558501D01*
X608332Y566832D02*
X609998Y568498D01*
Y571830D01*
X608332Y573496D01*
X601668D01*
X600002Y571830D01*
Y568498D01*
X601668Y566832D01*
X603334D01*
X605000Y568498D01*
Y573496D01*
X621338Y635498D02*
Y624502D01*
X626836D01*
X628669Y626334D01*
Y633666D01*
X626836Y635498D01*
X621338D01*
X632335Y624502D02*
Y631833D01*
X636000Y635498D01*
X639665Y631833D01*
Y624502D01*
Y630000D01*
X632335D01*
X643331Y633666D02*
X645164Y635498D01*
X648829D01*
X650662Y633666D01*
Y631833D01*
X648829Y630000D01*
X646996D01*
X648829D01*
X650662Y628167D01*
Y626334D01*
X648829Y624502D01*
X645164D01*
X643331Y626334D01*
X620335Y276669D02*
X618502Y274836D01*
Y271171D01*
X620335Y269338D01*
X627665D01*
X629498Y271171D01*
Y274836D01*
X627665Y276669D01*
X618502Y287666D02*
Y280334D01*
X624000D01*
X622167Y284000D01*
Y285833D01*
X624000Y287666D01*
X627665D01*
X629498Y285833D01*
Y282167D01*
X627665Y280334D01*
X629498Y296829D02*
X618502D01*
X624000Y291331D01*
Y298662D01*
X412669Y305665D02*
X410836Y307498D01*
X407171D01*
X405338Y305665D01*
Y298335D01*
X407171Y296502D01*
X410836D01*
X412669Y298335D01*
X423666Y307498D02*
X416334D01*
Y302000D01*
X420000Y303833D01*
X421833D01*
X423666Y302000D01*
Y298335D01*
X421833Y296502D01*
X418167D01*
X416334Y298335D01*
X434662Y307498D02*
X430996Y305665D01*
X427331Y302000D01*
Y298335D01*
X429164Y296502D01*
X432829D01*
X434662Y298335D01*
Y300167D01*
X432829Y302000D01*
X427331D01*
X468335Y275669D02*
X466502Y273836D01*
Y270171D01*
X468335Y268338D01*
X475666D01*
X477498Y270171D01*
Y273836D01*
X475666Y275669D01*
X477498Y286665D02*
Y279335D01*
X470167Y286665D01*
X468335D01*
X466502Y284833D01*
Y281167D01*
X468335Y279335D01*
X466502Y290331D02*
Y297662D01*
X468335D01*
X475666Y290331D01*
X477498D01*
X492498Y269338D02*
X481502D01*
Y274836D01*
X483335Y276669D01*
X487000D01*
X488833Y274836D01*
Y269338D01*
Y273004D02*
X492498Y276669D01*
Y285833D02*
X481502D01*
X487000Y280334D01*
Y287666D01*
X483335Y291331D02*
X481502Y293164D01*
Y296829D01*
X483335Y298662D01*
X490666D01*
X492498Y296829D01*
Y293164D01*
X490666Y291331D01*
X483335D01*
X548669Y126502D02*
Y137498D01*
X554167D01*
X556000Y135666D01*
Y132000D01*
X554167Y130167D01*
X548669D01*
X552335D02*
X556000Y126502D01*
X559665D02*
X563331D01*
X561498D01*
Y137498D01*
X559665Y135666D01*
X509338Y126502D02*
Y137498D01*
X514836D01*
X516669Y135666D01*
Y132000D01*
X514836Y130167D01*
X509338D01*
X513004D02*
X516669Y126502D01*
X525833D02*
Y137498D01*
X520335Y132000D01*
X527665D01*
X538662Y137498D02*
X531331D01*
Y132000D01*
X534996Y133833D01*
X536829D01*
X538662Y132000D01*
Y128335D01*
X536829Y126502D01*
X533164D01*
X531331Y128335D01*
X475502Y170000D02*
X486498D01*
Y175498D01*
X484665Y177331D01*
X477335D01*
X475502Y175498D01*
Y170000D01*
X486498Y180996D02*
X479167D01*
X475502Y184662D01*
X479167Y188327D01*
X486498D01*
X481000D01*
Y180996D01*
X486498Y199324D02*
Y191993D01*
X479167Y199324D01*
X477335D01*
X475502Y197491D01*
Y193826D01*
X477335Y191993D01*
X603498Y109836D02*
X592502D01*
Y115335D01*
X594334Y117167D01*
X598000D01*
X599833Y115335D01*
Y109836D01*
Y113502D02*
X603498Y117167D01*
X592502Y128164D02*
X594334Y124498D01*
X598000Y120833D01*
X601665D01*
X603498Y122666D01*
Y126331D01*
X601665Y128164D01*
X599833D01*
X598000Y126331D01*
Y120833D01*
X622498Y146836D02*
X611502D01*
Y152334D01*
X613335Y154167D01*
X617000D01*
X618833Y152334D01*
Y146836D01*
Y150502D02*
X622498Y154167D01*
X620666Y157833D02*
X622498Y159665D01*
Y163331D01*
X620666Y165164D01*
X613335D01*
X611502Y163331D01*
Y159665D01*
X613335Y157833D01*
X615167D01*
X617000Y159665D01*
Y165164D01*
X490502Y342338D02*
X501498D01*
Y347836D01*
X499665Y349669D01*
X492335D01*
X490502Y347836D01*
Y342338D01*
X501498Y353335D02*
X494167D01*
X490502Y357000D01*
X494167Y360666D01*
X501498D01*
X496000D01*
Y353335D01*
X490502Y371662D02*
Y364331D01*
X496000D01*
X494167Y367996D01*
Y369829D01*
X496000Y371662D01*
X499665D01*
X501498Y369829D01*
Y366164D01*
X499665Y364331D01*
X352498Y401173D02*
X341502D01*
Y406671D01*
X343335Y408504D01*
X347000D01*
X348833Y406671D01*
Y401173D01*
Y404838D02*
X352498Y408504D01*
X343335Y412169D02*
X341502Y414002D01*
Y417667D01*
X343335Y419500D01*
X345167D01*
X347000Y417667D01*
Y415835D01*
Y417667D01*
X348833Y419500D01*
X350665D01*
X352498Y417667D01*
Y414002D01*
X350665Y412169D01*
X325335Y521167D02*
X323502Y519334D01*
Y515669D01*
X325335Y513836D01*
X332665D01*
X334498Y515669D01*
Y519334D01*
X332665Y521167D01*
X323502Y532164D02*
X325335Y528498D01*
X329000Y524833D01*
X332665D01*
X334498Y526665D01*
Y530331D01*
X332665Y532164D01*
X330833D01*
X329000Y530331D01*
Y524833D01*
X246502Y629756D02*
X257498D01*
Y635255D01*
X255665Y637087D01*
X248335D01*
X246502Y635255D01*
Y629756D01*
X257498Y640753D02*
X250167D01*
X246502Y644418D01*
X250167Y648084D01*
X257498D01*
X252000D01*
Y640753D01*
X257498Y651749D02*
Y655415D01*
Y653582D01*
X246502D01*
X248335Y651749D01*
Y660913D02*
X246502Y662746D01*
Y666411D01*
X248335Y668244D01*
X255665D01*
X257498Y666411D01*
Y662746D01*
X255665Y660913D01*
X248335D01*
X99334Y253000D02*
X97502Y251167D01*
Y247502D01*
X99334Y245669D01*
X106665D01*
X108498Y247502D01*
Y251167D01*
X106665Y253000D01*
X108498Y256665D02*
Y260331D01*
Y258498D01*
X97502D01*
X99334Y256665D01*
X196338Y143498D02*
Y132502D01*
X201836D01*
X203669Y134334D01*
Y141665D01*
X201836Y143498D01*
X196338D01*
X207334Y132502D02*
Y139833D01*
X211000Y143498D01*
X214666Y139833D01*
Y132502D01*
Y138000D01*
X207334D01*
X223829Y132502D02*
Y143498D01*
X218331Y138000D01*
X225662D01*
X330502Y149338D02*
X341498D01*
Y154836D01*
X339665Y156669D01*
X332335D01*
X330502Y154836D01*
Y149338D01*
X341498Y160334D02*
X334167D01*
X330502Y164000D01*
X334167Y167666D01*
X341498D01*
X336000D01*
Y160334D01*
X330502Y178662D02*
X332335Y174996D01*
X336000Y171331D01*
X339665D01*
X341498Y173164D01*
Y176829D01*
X339665Y178662D01*
X337833D01*
X336000Y176829D01*
Y171331D01*
X129669Y52666D02*
X127836Y54498D01*
X124171D01*
X122338Y52666D01*
Y45335D01*
X124171Y43502D01*
X127836D01*
X129669Y45335D01*
X133335Y52666D02*
X135167Y54498D01*
X138833D01*
X140666Y52666D01*
Y50833D01*
X138833Y49000D01*
X137000D01*
X138833D01*
X140666Y47167D01*
Y45335D01*
X138833Y43502D01*
X135167D01*
X133335Y45335D01*
X144331Y52666D02*
X146164Y54498D01*
X149829D01*
X151662Y52666D01*
Y50833D01*
X149829Y49000D01*
X151662Y47167D01*
Y45335D01*
X149829Y43502D01*
X146164D01*
X144331Y45335D01*
Y47167D01*
X146164Y49000D01*
X144331Y50833D01*
Y52666D01*
X146164Y49000D02*
X149829D01*
X265669Y51666D02*
X263836Y53498D01*
X260171D01*
X258338Y51666D01*
Y44335D01*
X260171Y42502D01*
X263836D01*
X265669Y44335D01*
X274833Y42502D02*
Y53498D01*
X269335Y48000D01*
X276665D01*
X280331Y51666D02*
X282164Y53498D01*
X285829D01*
X287662Y51666D01*
Y49833D01*
X285829Y48000D01*
X283996D01*
X285829D01*
X287662Y46167D01*
Y44335D01*
X285829Y42502D01*
X282164D01*
X280331Y44335D01*
X404334Y753502D02*
X402502Y751669D01*
Y748004D01*
X404334Y746171D01*
X411665D01*
X413498Y748004D01*
Y751669D01*
X411665Y753502D01*
X402502Y764498D02*
Y757167D01*
X408000D01*
X406167Y760833D01*
Y762665D01*
X408000Y764498D01*
X411665D01*
X413498Y762665D01*
Y759000D01*
X411665Y757167D01*
X413498Y768164D02*
Y771829D01*
Y769996D01*
X402502D01*
X404334Y768164D01*
X474334Y604585D02*
X472502Y602753D01*
Y599087D01*
X474334Y597254D01*
X481665D01*
X483498Y599087D01*
Y602753D01*
X481665Y604585D01*
X483498Y608251D02*
Y611916D01*
Y610084D01*
X472502D01*
X474334Y608251D01*
Y617415D02*
X472502Y619247D01*
Y622913D01*
X474334Y624746D01*
X476167D01*
X478000Y622913D01*
Y621080D01*
Y622913D01*
X479833Y624746D01*
X481665D01*
X483498Y622913D01*
Y619247D01*
X481665Y617415D01*
X474545Y642125D02*
X472713Y643958D01*
X469047D01*
X467214Y642125D01*
Y634795D01*
X469047Y632962D01*
X472713D01*
X474545Y634795D01*
X478211Y632962D02*
X481876D01*
X480044D01*
Y643958D01*
X478211Y642125D01*
X494706Y643958D02*
X487375D01*
Y638460D01*
X491040Y640293D01*
X492873D01*
X494706Y638460D01*
Y634795D01*
X492873Y632962D01*
X489207D01*
X487375Y634795D01*
X403669Y617665D02*
X401836Y619498D01*
X398171D01*
X396338Y617665D01*
Y610335D01*
X398171Y608502D01*
X401836D01*
X403669Y610335D01*
X414665Y608502D02*
X407335D01*
X414665Y615833D01*
Y617665D01*
X412833Y619498D01*
X409167D01*
X407335Y617665D01*
X418331D02*
X420164Y619498D01*
X423829D01*
X425662Y617665D01*
Y615833D01*
X423829Y614000D01*
X421996D01*
X423829D01*
X425662Y612167D01*
Y610335D01*
X423829Y608502D01*
X420164D01*
X418331Y610335D01*
X602668Y610336D02*
X601002Y608669D01*
Y605337D01*
X602668Y603671D01*
X609332D01*
X610998Y605337D01*
Y608669D01*
X609332Y610336D01*
X602668Y613668D02*
X601002Y615334D01*
Y618666D01*
X602668Y620332D01*
X604334D01*
X606000Y618666D01*
Y617000D01*
Y618666D01*
X607666Y620332D01*
X609332D01*
X610998Y618666D01*
Y615334D01*
X609332Y613668D01*
X610998Y628663D02*
X601002D01*
X606000Y623665D01*
Y630329D01*
X671498Y613171D02*
X660502D01*
Y618669D01*
X662335Y620502D01*
X666000D01*
X667833Y618669D01*
Y613171D01*
Y616836D02*
X671498Y620502D01*
Y631498D02*
Y624167D01*
X664167Y631498D01*
X662335D01*
X660502Y629665D01*
Y626000D01*
X662335Y624167D01*
X671498Y635164D02*
Y638829D01*
Y636996D01*
X660502D01*
X662335Y635164D01*
X663668Y553335D02*
X662002Y551669D01*
Y548337D01*
X663668Y546671D01*
X670332D01*
X671998Y548337D01*
Y551669D01*
X670332Y553335D01*
X671998Y563332D02*
Y556668D01*
X665334Y563332D01*
X663668D01*
X662002Y561666D01*
Y558334D01*
X663668Y556668D01*
X662002Y573329D02*
X663668Y569997D01*
X667000Y566665D01*
X670332D01*
X671998Y568331D01*
Y571663D01*
X670332Y573329D01*
X668666D01*
X667000Y571663D01*
Y566665D01*
X573254Y440502D02*
Y451498D01*
X578753D01*
X580585Y449665D01*
Y446000D01*
X578753Y444167D01*
X573254D01*
X576920D02*
X580585Y440502D01*
X584251D02*
X587916D01*
X586084D01*
Y451498D01*
X584251Y449665D01*
X593415Y451498D02*
X600746D01*
Y449665D01*
X593415Y442335D01*
Y440502D01*
X592998Y460004D02*
X583002D01*
Y465002D01*
X584668Y466669D01*
X588000D01*
X589666Y465002D01*
Y460004D01*
Y463336D02*
X592998Y466669D01*
Y470001D02*
Y473333D01*
Y471667D01*
X583002D01*
X584668Y470001D01*
Y478331D02*
X583002Y479998D01*
Y483330D01*
X584668Y484996D01*
X586334D01*
X588000Y483330D01*
X589666Y484996D01*
X591332D01*
X592998Y483330D01*
Y479998D01*
X591332Y478331D01*
X589666D01*
X588000Y479998D01*
X586334Y478331D01*
X584668D01*
X588000Y479998D02*
Y483330D01*
X412338Y390502D02*
Y401498D01*
X417836D01*
X419669Y399665D01*
Y396000D01*
X417836Y394167D01*
X412338D01*
X416004D02*
X419669Y390502D01*
X423335Y399665D02*
X425167Y401498D01*
X428833D01*
X430666Y399665D01*
Y397833D01*
X428833Y396000D01*
X427000D01*
X428833D01*
X430666Y394167D01*
Y392335D01*
X428833Y390502D01*
X425167D01*
X423335Y392335D01*
X434331Y399665D02*
X436164Y401498D01*
X439829D01*
X441662Y399665D01*
Y397833D01*
X439829Y396000D01*
X441662Y394167D01*
Y392335D01*
X439829Y390502D01*
X436164D01*
X434331Y392335D01*
Y394167D01*
X436164Y396000D01*
X434331Y397833D01*
Y399665D01*
X436164Y396000D02*
X439829D01*
X614334Y391167D02*
X612502Y389334D01*
Y385669D01*
X614334Y383836D01*
X621665D01*
X623498Y385669D01*
Y389334D01*
X621665Y391167D01*
X612502Y402164D02*
Y394833D01*
X618000D01*
X616167Y398498D01*
Y400331D01*
X618000Y402164D01*
X621665D01*
X623498Y400331D01*
Y396665D01*
X621665Y394833D01*
X413585Y333666D02*
X411753Y335498D01*
X408087D01*
X406254Y333666D01*
Y326334D01*
X408087Y324502D01*
X411753D01*
X413585Y326334D01*
X417251Y324502D02*
X420916D01*
X419084D01*
Y335498D01*
X417251Y333666D01*
X426415Y335498D02*
X433746D01*
Y333666D01*
X426415Y326334D01*
Y324502D01*
X428669Y233666D02*
X426836Y235498D01*
X423171D01*
X421338Y233666D01*
Y226334D01*
X423171Y224502D01*
X426836D01*
X428669Y226334D01*
X437833Y224502D02*
Y235498D01*
X432335Y230000D01*
X439665D01*
X450662Y235498D02*
X443331D01*
Y230000D01*
X446996Y231833D01*
X448829D01*
X450662Y230000D01*
Y226334D01*
X448829Y224502D01*
X445164D01*
X443331Y226334D01*
X474334Y238167D02*
X472502Y236334D01*
Y232669D01*
X474334Y230836D01*
X481665D01*
X483498Y232669D01*
Y236334D01*
X481665Y238167D01*
X472502Y241833D02*
Y249164D01*
X474334D01*
X481665Y241833D01*
X483498D01*
X498498Y231338D02*
X487502D01*
Y236836D01*
X489334Y238669D01*
X493000D01*
X494833Y236836D01*
Y231338D01*
Y235004D02*
X498498Y238669D01*
Y247833D02*
X487502D01*
X493000Y242334D01*
Y249666D01*
X498498Y258829D02*
X487502D01*
X493000Y253331D01*
Y260662D01*
X574334Y213669D02*
X572502Y211836D01*
Y208171D01*
X574334Y206338D01*
X581665D01*
X583498Y208171D01*
Y211836D01*
X581665Y213669D01*
X572502Y224666D02*
Y217334D01*
X578000D01*
X576167Y221000D01*
Y222833D01*
X578000Y224666D01*
X581665D01*
X583498Y222833D01*
Y219167D01*
X581665Y217334D01*
X574334Y228331D02*
X572502Y230164D01*
Y233829D01*
X574334Y235662D01*
X576167D01*
X578000Y233829D01*
X579833Y235662D01*
X581665D01*
X583498Y233829D01*
Y230164D01*
X581665Y228331D01*
X579833D01*
X578000Y230164D01*
X576167Y228331D01*
X574334D01*
X578000Y230164D02*
Y233829D01*
X619498Y211338D02*
X608502D01*
Y216836D01*
X610335Y218669D01*
X614000D01*
X615833Y216836D01*
Y211338D01*
Y215004D02*
X619498Y218669D01*
Y227833D02*
X608502D01*
X614000Y222334D01*
Y229666D01*
X619498Y240662D02*
Y233331D01*
X612167Y240662D01*
X610335D01*
X608502Y238829D01*
Y235164D01*
X610335Y233331D01*
X624334Y243669D02*
X622502Y241836D01*
Y238171D01*
X624334Y236338D01*
X631665D01*
X633498Y238171D01*
Y241836D01*
X631665Y243669D01*
X624334Y247334D02*
X622502Y249167D01*
Y252833D01*
X624334Y254666D01*
X626167D01*
X628000Y252833D01*
Y251000D01*
Y252833D01*
X629833Y254666D01*
X631665D01*
X633498Y252833D01*
Y249167D01*
X631665Y247334D01*
X622502Y258331D02*
Y265662D01*
X624334D01*
X631665Y258331D01*
X633498D01*
X292502Y389665D02*
X290669Y391498D01*
X287003D01*
X285171Y389665D01*
Y382335D01*
X287003Y380502D01*
X290669D01*
X292502Y382335D01*
X296167Y389665D02*
X298000Y391498D01*
X301665D01*
X303498Y389665D01*
Y387833D01*
X301665Y386000D01*
X299833D01*
X301665D01*
X303498Y384167D01*
Y382335D01*
X301665Y380502D01*
X298000D01*
X296167Y382335D01*
X307164Y380502D02*
X310829D01*
X308996D01*
Y391498D01*
X307164Y389665D01*
X134669D02*
X132836Y391498D01*
X129171D01*
X127338Y389665D01*
Y382335D01*
X129171Y380502D01*
X132836D01*
X134669Y382335D01*
X138335Y389665D02*
X140167Y391498D01*
X143833D01*
X145666Y389665D01*
Y387833D01*
X143833Y386000D01*
X142000D01*
X143833D01*
X145666Y384167D01*
Y382335D01*
X143833Y380502D01*
X140167D01*
X138335Y382335D01*
X149331Y389665D02*
X151164Y391498D01*
X154829D01*
X156662Y389665D01*
Y387833D01*
X154829Y386000D01*
X152996D01*
X154829D01*
X156662Y384167D01*
Y382335D01*
X154829Y380502D01*
X151164D01*
X149331Y382335D01*
X357338Y76498D02*
Y65502D01*
X362836D01*
X364669Y67334D01*
Y74665D01*
X362836Y76498D01*
X357338D01*
X368335Y65502D02*
Y72833D01*
X372000Y76498D01*
X375666Y72833D01*
Y65502D01*
Y71000D01*
X368335D01*
X379331Y74665D02*
X381164Y76498D01*
X384829D01*
X386662Y74665D01*
Y72833D01*
X384829Y71000D01*
X386662Y69167D01*
Y67334D01*
X384829Y65502D01*
X381164D01*
X379331Y67334D01*
Y69167D01*
X381164Y71000D01*
X379331Y72833D01*
Y74665D01*
X381164Y71000D02*
X384829D01*
X139669Y24666D02*
X137836Y26498D01*
X134171D01*
X132338Y24666D01*
Y17335D01*
X134171Y15502D01*
X137836D01*
X139669Y17335D01*
X148833Y15502D02*
Y26498D01*
X143335Y21000D01*
X150666D01*
X154331Y24666D02*
X156164Y26498D01*
X159829D01*
X161662Y24666D01*
Y17335D01*
X159829Y15502D01*
X156164D01*
X154331Y17335D01*
Y24666D01*
X280502D02*
X278669Y26498D01*
X275004D01*
X273171Y24666D01*
Y17335D01*
X275004Y15502D01*
X278669D01*
X280502Y17335D01*
X289666Y15502D02*
Y26498D01*
X284167Y21000D01*
X291498D01*
X295164Y15502D02*
X298829D01*
X296996D01*
Y26498D01*
X295164Y24666D01*
X51338Y250502D02*
Y261498D01*
X56836D01*
X58669Y259666D01*
Y256000D01*
X56836Y254167D01*
X51338D01*
X55003D02*
X58669Y250502D01*
X62334Y259666D02*
X64167Y261498D01*
X67833D01*
X69665Y259666D01*
Y257833D01*
X67833Y256000D01*
X66000D01*
X67833D01*
X69665Y254167D01*
Y252334D01*
X67833Y250502D01*
X64167D01*
X62334Y252334D01*
X78829Y250502D02*
Y261498D01*
X73331Y256000D01*
X80662D01*
X677335Y689331D02*
X675502Y687498D01*
Y683833D01*
X677335Y682000D01*
X684666D01*
X686498Y683833D01*
Y687498D01*
X684666Y689331D01*
X686498Y692997D02*
Y696662D01*
Y694829D01*
X675502D01*
X677335Y692997D01*
Y702160D02*
X675502Y703993D01*
Y707658D01*
X677335Y709491D01*
X679167D01*
X681000Y707658D01*
X682833Y709491D01*
X684666D01*
X686498Y707658D01*
Y703993D01*
X684666Y702160D01*
X682833D01*
X681000Y703993D01*
X679167Y702160D01*
X677335D01*
X681000Y703993D02*
Y707658D01*
X612498Y682000D02*
X601502D01*
Y687498D01*
X603335Y689331D01*
X607000D01*
X608833Y687498D01*
Y682000D01*
Y685666D02*
X612498Y689331D01*
X603335Y692997D02*
X601502Y694829D01*
Y698495D01*
X603335Y700327D01*
X605167D01*
X607000Y698495D01*
Y696662D01*
Y698495D01*
X608833Y700327D01*
X610666D01*
X612498Y698495D01*
Y694829D01*
X610666Y692997D01*
X603335Y703993D02*
X601502Y705826D01*
Y709491D01*
X603335Y711324D01*
X610666D01*
X612498Y709491D01*
Y705826D01*
X610666Y703993D01*
X603335D01*
X637498Y682000D02*
X626502D01*
Y687498D01*
X628335Y689331D01*
X632000D01*
X633833Y687498D01*
Y682000D01*
Y685666D02*
X637498Y689331D01*
X628335Y692997D02*
X626502Y694829D01*
Y698495D01*
X628335Y700327D01*
X630167D01*
X632000Y698495D01*
Y696662D01*
Y698495D01*
X633833Y700327D01*
X635666D01*
X637498Y698495D01*
Y694829D01*
X635666Y692997D01*
X637498Y703993D02*
Y707658D01*
Y705826D01*
X626502D01*
X628335Y703993D01*
X562498Y682000D02*
X551502D01*
Y687498D01*
X553335Y689331D01*
X557000D01*
X558833Y687498D01*
Y682000D01*
Y685666D02*
X562498Y689331D01*
Y700327D02*
Y692997D01*
X555167Y700327D01*
X553335D01*
X551502Y698495D01*
Y694829D01*
X553335Y692997D01*
X562498Y711324D02*
Y703993D01*
X555167Y711324D01*
X553335D01*
X551502Y709491D01*
Y705826D01*
X553335Y703993D01*
X489334Y91669D02*
X487502Y89836D01*
Y86171D01*
X489334Y84338D01*
X496665D01*
X498498Y86171D01*
Y89836D01*
X496665Y91669D01*
X489334Y95335D02*
X487502Y97167D01*
Y100833D01*
X489334Y102666D01*
X491167D01*
X493000Y100833D01*
Y99000D01*
Y100833D01*
X494833Y102666D01*
X496665D01*
X498498Y100833D01*
Y97167D01*
X496665Y95335D01*
X498498Y113662D02*
Y106331D01*
X491167Y113662D01*
X489334D01*
X487502Y111829D01*
Y108164D01*
X489334Y106331D01*
X466334Y83669D02*
X464502Y81836D01*
Y78171D01*
X466334Y76338D01*
X473666D01*
X475498Y78171D01*
Y81836D01*
X473666Y83669D01*
X466334Y87334D02*
X464502Y89167D01*
Y92833D01*
X466334Y94665D01*
X468167D01*
X470000Y92833D01*
Y91000D01*
Y92833D01*
X471833Y94665D01*
X473666D01*
X475498Y92833D01*
Y89167D01*
X473666Y87334D01*
X466334Y98331D02*
X464502Y100164D01*
Y103829D01*
X466334Y105662D01*
X473666D01*
X475498Y103829D01*
Y100164D01*
X473666Y98331D01*
X466334D01*
X378335Y748669D02*
X376502Y746836D01*
Y743171D01*
X378335Y741338D01*
X385666D01*
X387498Y743171D01*
Y746836D01*
X385666Y748669D01*
X376502Y759666D02*
Y752335D01*
X382000D01*
X380167Y756000D01*
Y757833D01*
X382000Y759666D01*
X385666D01*
X387498Y757833D01*
Y754167D01*
X385666Y752335D01*
X376502Y763331D02*
Y770662D01*
X378335D01*
X385666Y763331D01*
X387498D01*
X376498Y378673D02*
X365502D01*
Y384171D01*
X367335Y386003D01*
X371000D01*
X372833Y384171D01*
Y378673D01*
Y382338D02*
X376498Y386003D01*
X365502Y389669D02*
Y397000D01*
X367335D01*
X374665Y389669D01*
X376498D01*
X73502Y89669D02*
X84498D01*
Y97000D01*
Y100666D02*
Y104331D01*
Y102498D01*
X73502D01*
X75335Y100666D01*
X12335Y105669D02*
X10502Y103836D01*
Y100171D01*
X12335Y98338D01*
X19665D01*
X21498Y100171D01*
Y103836D01*
X19665Y105669D01*
X12335Y109334D02*
X10502Y111167D01*
Y114833D01*
X12335Y116665D01*
X14167D01*
X16000Y114833D01*
Y113000D01*
Y114833D01*
X17833Y116665D01*
X19665D01*
X21498Y114833D01*
Y111167D01*
X19665Y109334D01*
Y120331D02*
X21498Y122164D01*
Y125829D01*
X19665Y127662D01*
X12335D01*
X10502Y125829D01*
Y122164D01*
X12335Y120331D01*
X14167D01*
X16000Y122164D01*
Y127662D01*
X599669Y537665D02*
X597836Y539498D01*
X594171D01*
X592338Y537665D01*
Y530335D01*
X594171Y528502D01*
X597836D01*
X599669Y530335D01*
X610666Y528502D02*
X603335D01*
X610666Y535833D01*
Y537665D01*
X608833Y539498D01*
X605167D01*
X603335Y537665D01*
X614331Y530335D02*
X616164Y528502D01*
X619829D01*
X621662Y530335D01*
Y537665D01*
X619829Y539498D01*
X616164D01*
X614331Y537665D01*
Y535833D01*
X616164Y534000D01*
X621662D01*
X616338Y472502D02*
Y483498D01*
X621836D01*
X623669Y481665D01*
Y478000D01*
X621836Y476167D01*
X616338D01*
X620004D02*
X623669Y472502D01*
X627335Y481665D02*
X629167Y483498D01*
X632833D01*
X634665Y481665D01*
Y479833D01*
X632833Y478000D01*
X631000D01*
X632833D01*
X634665Y476167D01*
Y474334D01*
X632833Y472502D01*
X629167D01*
X627335Y474334D01*
X645662Y472502D02*
X638331D01*
X645662Y479833D01*
Y481665D01*
X643829Y483498D01*
X640164D01*
X638331Y481665D01*
X624498Y347338D02*
X613502D01*
Y352836D01*
X615335Y354669D01*
X619000D01*
X620833Y352836D01*
Y347338D01*
Y351004D02*
X624498Y354669D01*
Y363833D02*
X613502D01*
X619000Y358335D01*
Y365666D01*
X615335Y369331D02*
X613502Y371164D01*
Y374829D01*
X615335Y376662D01*
X617167D01*
X619000Y374829D01*
Y372996D01*
Y374829D01*
X620833Y376662D01*
X622665D01*
X624498Y374829D01*
Y371164D01*
X622665Y369331D01*
X554498Y501500D02*
X543502D01*
Y506998D01*
X545335Y508831D01*
X549000D01*
X550833Y506998D01*
Y501500D01*
Y505165D02*
X554498Y508831D01*
Y512496D02*
Y516162D01*
Y514329D01*
X543502D01*
X545335Y512496D01*
X552665Y521660D02*
X554498Y523493D01*
Y527158D01*
X552665Y528991D01*
X545335D01*
X543502Y527158D01*
Y523493D01*
X545335Y521660D01*
X547167D01*
X549000Y523493D01*
Y528991D01*
X469998Y733671D02*
X460002D01*
Y738669D01*
X461668Y740335D01*
X465000D01*
X466666Y738669D01*
Y733671D01*
Y737003D02*
X469998Y740335D01*
Y750332D02*
Y743668D01*
X463334Y750332D01*
X461668D01*
X460002Y748666D01*
Y745334D01*
X461668Y743668D01*
X460002Y753664D02*
Y760329D01*
X461668D01*
X468332Y753664D01*
X469998D01*
X461585Y378666D02*
X459753Y380498D01*
X456087D01*
X454254Y378666D01*
Y371334D01*
X456087Y369502D01*
X459753D01*
X461585Y371334D01*
X465251Y369502D02*
X468916D01*
X467084D01*
Y380498D01*
X465251Y378666D01*
X479913Y369502D02*
Y380498D01*
X474415Y375000D01*
X481746D01*
X400418Y513666D02*
X398585Y515498D01*
X394920D01*
X393087Y513666D01*
Y506334D01*
X394920Y504502D01*
X398585D01*
X400418Y506334D01*
X404084Y504502D02*
X407749D01*
X405916D01*
Y515498D01*
X404084Y513666D01*
X413247Y504502D02*
X416913D01*
X415080D01*
Y515498D01*
X413247Y513666D01*
X376498Y401173D02*
X365502D01*
Y406671D01*
X367335Y408504D01*
X371000D01*
X372833Y406671D01*
Y401173D01*
Y404838D02*
X376498Y408504D01*
X367335Y412169D02*
X365502Y414002D01*
Y417667D01*
X367335Y419500D01*
X369167D01*
X371000Y417667D01*
X372833Y419500D01*
X374665D01*
X376498Y417667D01*
Y414002D01*
X374665Y412169D01*
X372833D01*
X371000Y414002D01*
X369167Y412169D01*
X367335D01*
X371000Y414002D02*
Y417667D01*
X394498Y518836D02*
X383502D01*
Y524334D01*
X385335Y526167D01*
X389000D01*
X390833Y524334D01*
Y518836D01*
Y522502D02*
X394498Y526167D01*
Y535331D02*
X383502D01*
X389000Y529833D01*
Y537164D01*
X228669Y25666D02*
X226836Y27498D01*
X223171D01*
X221338Y25666D01*
Y18334D01*
X223171Y16502D01*
X226836D01*
X228669Y18334D01*
X237833Y16502D02*
Y27498D01*
X232334Y22000D01*
X239666D01*
X248829Y16502D02*
Y27498D01*
X243331Y22000D01*
X250662D01*
X21498Y214338D02*
X10502D01*
Y219836D01*
X12335Y221669D01*
X16000D01*
X17833Y219836D01*
Y214338D01*
Y218004D02*
X21498Y221669D01*
X12335Y225334D02*
X10502Y227167D01*
Y230833D01*
X12335Y232666D01*
X14167D01*
X16000Y230833D01*
Y229000D01*
Y230833D01*
X17833Y232666D01*
X19665D01*
X21498Y230833D01*
Y227167D01*
X19665Y225334D01*
X10502Y243662D02*
Y236331D01*
X16000D01*
X14167Y239996D01*
Y241829D01*
X16000Y243662D01*
X19665D01*
X21498Y241829D01*
Y238164D01*
X19665Y236331D01*
X614334Y318669D02*
X612502Y316836D01*
Y313171D01*
X614334Y311338D01*
X621665D01*
X623498Y313171D01*
Y316836D01*
X621665Y318669D01*
X623498Y329665D02*
Y322335D01*
X616167Y329665D01*
X614334D01*
X612502Y327833D01*
Y324167D01*
X614334Y322335D01*
Y333331D02*
X612502Y335164D01*
Y338829D01*
X614334Y340662D01*
X616167D01*
X618000Y338829D01*
X619833Y340662D01*
X621665D01*
X623498Y338829D01*
Y335164D01*
X621665Y333331D01*
X619833D01*
X618000Y335164D01*
X616167Y333331D01*
X614334D01*
X618000Y335164D02*
Y338829D01*
X578998Y460004D02*
X569002D01*
Y465002D01*
X570668Y466669D01*
X574000D01*
X575666Y465002D01*
Y460004D01*
Y463336D02*
X578998Y466669D01*
Y470001D02*
Y473333D01*
Y471667D01*
X569002D01*
X570668Y470001D01*
Y478331D02*
X569002Y479998D01*
Y483330D01*
X570668Y484996D01*
X572334D01*
X574000Y483330D01*
Y481664D01*
Y483330D01*
X575666Y484996D01*
X577332D01*
X578998Y483330D01*
Y479998D01*
X577332Y478331D01*
X578498Y303171D02*
X567502D01*
Y308669D01*
X569334Y310502D01*
X573000D01*
X574833Y308669D01*
Y303171D01*
Y306836D02*
X578498Y310502D01*
Y319666D02*
X567502D01*
X573000Y314167D01*
Y321498D01*
X578498Y325164D02*
Y328829D01*
Y326996D01*
X567502D01*
X569334Y325164D01*
X443669Y790666D02*
X441836Y792498D01*
X438171D01*
X436338Y790666D01*
Y783335D01*
X438171Y781502D01*
X441836D01*
X443669Y783335D01*
X454665Y792498D02*
X447335D01*
Y787000D01*
X451000Y788833D01*
X452833D01*
X454665Y787000D01*
Y783335D01*
X452833Y781502D01*
X449167D01*
X447335Y783335D01*
X465662Y781502D02*
X458331D01*
X465662Y788833D01*
Y790666D01*
X463829Y792498D01*
X460164D01*
X458331Y790666D01*
X457498Y669338D02*
X446502D01*
Y674836D01*
X448335Y676669D01*
X452000D01*
X453833Y674836D01*
Y669338D01*
Y673004D02*
X457498Y676669D01*
Y687665D02*
Y680334D01*
X450167Y687665D01*
X448335D01*
X446502Y685833D01*
Y682167D01*
X448335Y680334D01*
Y691331D02*
X446502Y693164D01*
Y696829D01*
X448335Y698662D01*
X450167D01*
X452000Y696829D01*
Y694996D01*
Y696829D01*
X453833Y698662D01*
X455666D01*
X457498Y696829D01*
Y693164D01*
X455666Y691331D01*
X392254Y442502D02*
Y453498D01*
X397753D01*
X399585Y451665D01*
Y448000D01*
X397753Y446167D01*
X392254D01*
X395920D02*
X399585Y442502D01*
X403251D02*
X406916D01*
X405084D01*
Y453498D01*
X403251Y451665D01*
X412415D02*
X414247Y453498D01*
X417913D01*
X419746Y451665D01*
Y444334D01*
X417913Y442502D01*
X414247D01*
X412415Y444334D01*
Y451665D01*
X376669Y232666D02*
X374836Y234498D01*
X371171D01*
X369338Y232666D01*
Y225334D01*
X371171Y223502D01*
X374836D01*
X376669Y225334D01*
X387665Y223502D02*
X380335D01*
X387665Y230833D01*
Y232666D01*
X385833Y234498D01*
X382167D01*
X380335Y232666D01*
X398662Y234498D02*
X391331D01*
Y229000D01*
X394996Y230833D01*
X396829D01*
X398662Y229000D01*
Y225334D01*
X396829Y223502D01*
X393164D01*
X391331Y225334D01*
X216338Y113498D02*
Y102502D01*
X221836D01*
X223669Y104334D01*
Y111665D01*
X221836Y113498D01*
X216338D01*
X227334Y102502D02*
Y109833D01*
X231000Y113498D01*
X234666Y109833D01*
Y102502D01*
Y108000D01*
X227334D01*
X238331Y104334D02*
X240164Y102502D01*
X243829D01*
X245662Y104334D01*
Y111665D01*
X243829Y113498D01*
X240164D01*
X238331Y111665D01*
Y109833D01*
X240164Y108000D01*
X245662D01*
D12*
X379000Y383500D02*
X563500D01*
X379000Y350000D02*
X448500D01*
X556000Y723500D02*
X583500D01*
X483500Y433500D02*
X563500D01*
X529000Y457500D02*
X596000D01*
X491000Y321000D02*
X541000D01*
X469000Y226000D02*
X548500D01*
X563500Y383500D02*
Y433500D01*
X483500Y383500D02*
Y433500D01*
X541000Y283500D02*
X548500Y268500D01*
X483500Y501000D02*
Y513500D01*
X462000Y274000D02*
Y301000D01*
X448500Y350000D02*
Y383500D01*
X379000Y350000D02*
Y383500D01*
X596000Y457500D02*
Y476000D01*
X591000Y496000D02*
X598500Y478500D01*
X543500Y703500D02*
X556000Y723500D01*
X553500Y463500D02*
X556400Y457700D01*
X526000Y463500D02*
X529000Y457500D01*
X541000Y283500D02*
Y321000D01*
X548500Y226000D02*
Y268500D01*
X479115Y520077D02*
X483500Y513500D01*
X473500Y481000D02*
Y503500D01*
X453500D02*
X478500D01*
X473500Y481000D02*
X478500Y476000D01*
X491000Y301000D02*
Y321000D01*
X462000Y301000D02*
X491000D01*
X462000Y274000D02*
X469000Y260000D01*
Y226000D02*
Y260000D01*
M02*
