G04*
G04 #@! TF.GenerationSoftware,Altium Limited,Altium Designer,21.3.2 (30)*
G04*
G04 Layer_Color=8421504*
%FSLAX44Y44*%
%MOMM*%
G71*
G04*
G04 #@! TF.SameCoordinates,5F18C444-2927-46CB-AB6B-11653520DC00*
G04*
G04*
G04 #@! TF.FilePolarity,Positive*
G04*
G01*
G75*
%ADD13O,1.5500X0.6000*%
%ADD14O,0.6000X1.5500*%
%ADD15R,1.0000X1.2500*%
%ADD16R,1.0000X2.4000*%
%ADD17R,2.0000X2.0000*%
%ADD18O,1.0000X0.3000*%
%ADD19O,0.3000X1.0000*%
%ADD20R,0.6000X1.0000*%
%ADD21R,2.2000X5.0000*%
%ADD22R,5.0000X2.2000*%
%ADD23R,2.4000X1.0000*%
%ADD24R,1.2500X1.0000*%
%ADD25R,1.0000X0.6000*%
%ADD26C,1.0000*%
D13*
X568250Y331950D02*
D03*
Y344650D02*
D03*
Y357350D02*
D03*
Y370050D02*
D03*
X513750D02*
D03*
Y357350D02*
D03*
Y344650D02*
D03*
Y331950D02*
D03*
X408750Y215050D02*
D03*
Y202350D02*
D03*
Y189650D02*
D03*
Y176950D02*
D03*
X463250D02*
D03*
Y189650D02*
D03*
Y202350D02*
D03*
Y215050D02*
D03*
X553250Y176950D02*
D03*
Y189650D02*
D03*
Y202350D02*
D03*
Y215050D02*
D03*
X498750D02*
D03*
Y202350D02*
D03*
Y189650D02*
D03*
Y176950D02*
D03*
D14*
X616950Y553750D02*
D03*
X629650D02*
D03*
X642350D02*
D03*
X655050D02*
D03*
Y608250D02*
D03*
X642350D02*
D03*
X629650D02*
D03*
X616950D02*
D03*
D15*
X473500Y421000D02*
D03*
X453500D02*
D03*
X676000Y150000D02*
D03*
X656000D02*
D03*
X453500Y396000D02*
D03*
X473500D02*
D03*
X541000Y446000D02*
D03*
X561000D02*
D03*
X486000Y471000D02*
D03*
X506000D02*
D03*
X456000Y611000D02*
D03*
X436000D02*
D03*
X506000Y491000D02*
D03*
X486000D02*
D03*
X371000Y636000D02*
D03*
X351000D02*
D03*
X176000Y21000D02*
D03*
X196000D02*
D03*
X246000Y41000D02*
D03*
X226000D02*
D03*
X76000Y236000D02*
D03*
X56000D02*
D03*
X331000Y21000D02*
D03*
X311000D02*
D03*
X391000Y136000D02*
D03*
X371000D02*
D03*
X373500Y247000D02*
D03*
X393500D02*
D03*
X426000D02*
D03*
X446000D02*
D03*
X251000Y386000D02*
D03*
X271000D02*
D03*
X366000Y550000D02*
D03*
X346000D02*
D03*
X396000Y466000D02*
D03*
X416000D02*
D03*
X396000Y491000D02*
D03*
X416000D02*
D03*
X436000D02*
D03*
X456000D02*
D03*
X516000Y151000D02*
D03*
X536000D02*
D03*
X478500Y356000D02*
D03*
X458500D02*
D03*
X556000Y151000D02*
D03*
X576000D02*
D03*
X581000Y256000D02*
D03*
X601000D02*
D03*
X513500Y396000D02*
D03*
X493500D02*
D03*
X553500D02*
D03*
X533500D02*
D03*
X513500Y421000D02*
D03*
X493500D02*
D03*
X553500D02*
D03*
X533500D02*
D03*
X501000Y446000D02*
D03*
X521000D02*
D03*
X581000Y393500D02*
D03*
X601000D02*
D03*
X506000Y583500D02*
D03*
X526000D02*
D03*
Y638500D02*
D03*
X506000D02*
D03*
X476000Y698500D02*
D03*
X496000D02*
D03*
X476000Y720000D02*
D03*
X496000D02*
D03*
X516000D02*
D03*
X536000D02*
D03*
X516000Y698500D02*
D03*
X536000D02*
D03*
D16*
X494793Y556000D02*
D03*
X527207D02*
D03*
X164793Y56000D02*
D03*
X197207D02*
D03*
X332206D02*
D03*
X299793D02*
D03*
X169793Y386000D02*
D03*
X202207D02*
D03*
X367293Y276000D02*
D03*
X399707D02*
D03*
X452207D02*
D03*
X419793D02*
D03*
X477207Y321000D02*
D03*
X444793D02*
D03*
X434794Y461000D02*
D03*
X467207D02*
D03*
X574794Y283500D02*
D03*
X607207D02*
D03*
X574794Y421000D02*
D03*
X607207D02*
D03*
X379707Y575000D02*
D03*
X347294D02*
D03*
X419793Y641000D02*
D03*
X452206D02*
D03*
X494793Y611000D02*
D03*
X527207D02*
D03*
X379707Y608000D02*
D03*
X347293D02*
D03*
D17*
X436000Y556000D02*
D03*
D18*
X416000Y543500D02*
D03*
Y548500D02*
D03*
Y553500D02*
D03*
Y558500D02*
D03*
Y563500D02*
D03*
Y568500D02*
D03*
X456000D02*
D03*
Y563500D02*
D03*
Y558500D02*
D03*
Y553500D02*
D03*
Y548500D02*
D03*
Y543500D02*
D03*
D19*
X423500Y576000D02*
D03*
X428500D02*
D03*
X433500D02*
D03*
X438500D02*
D03*
X443500D02*
D03*
X448500D02*
D03*
Y536000D02*
D03*
X443500D02*
D03*
X438500D02*
D03*
X433500D02*
D03*
X428500D02*
D03*
X423500D02*
D03*
D20*
X245500Y89500D02*
D03*
X236000D02*
D03*
X226500D02*
D03*
Y62500D02*
D03*
X245500D02*
D03*
X371000Y87500D02*
D03*
X380500D02*
D03*
Y114500D02*
D03*
X361500D02*
D03*
X371000D02*
D03*
X361500Y87500D02*
D03*
D21*
X196000Y106000D02*
D03*
X156000D02*
D03*
X331000D02*
D03*
X291000D02*
D03*
D22*
X96000Y161000D02*
D03*
Y121000D02*
D03*
X206000Y696000D02*
D03*
Y656000D02*
D03*
X296000Y696000D02*
D03*
Y656000D02*
D03*
D23*
X46000Y162206D02*
D03*
Y129793D02*
D03*
X111000Y232206D02*
D03*
Y199793D02*
D03*
X461000Y152207D02*
D03*
Y119794D02*
D03*
X561000Y539794D02*
D03*
Y572207D02*
D03*
X383500Y697293D02*
D03*
Y729707D02*
D03*
X561000Y627207D02*
D03*
Y594794D02*
D03*
D24*
X16000Y161000D02*
D03*
Y141000D02*
D03*
Y181000D02*
D03*
Y201000D02*
D03*
X406000Y106000D02*
D03*
Y86000D02*
D03*
X346000Y431000D02*
D03*
Y451000D02*
D03*
Y491000D02*
D03*
Y471000D02*
D03*
Y531000D02*
D03*
Y511000D02*
D03*
X371000Y431000D02*
D03*
Y451000D02*
D03*
Y491000D02*
D03*
Y471000D02*
D03*
Y531000D02*
D03*
Y511000D02*
D03*
X491000Y146000D02*
D03*
Y126000D02*
D03*
X511000Y236000D02*
D03*
Y256000D02*
D03*
X536000Y236000D02*
D03*
Y256000D02*
D03*
X503500Y311000D02*
D03*
Y291000D02*
D03*
X528500Y311000D02*
D03*
Y291000D02*
D03*
X596000Y141000D02*
D03*
Y161000D02*
D03*
Y198500D02*
D03*
Y178500D02*
D03*
Y216000D02*
D03*
Y236000D02*
D03*
X561000Y236000D02*
D03*
Y256000D02*
D03*
X553500Y311000D02*
D03*
Y291000D02*
D03*
X601000Y316000D02*
D03*
Y336000D02*
D03*
Y353500D02*
D03*
Y373500D02*
D03*
X531000Y491000D02*
D03*
Y471000D02*
D03*
X508000Y531000D02*
D03*
Y511000D02*
D03*
X531000D02*
D03*
Y531000D02*
D03*
X556000Y491000D02*
D03*
Y471000D02*
D03*
X681000Y496000D02*
D03*
Y516000D02*
D03*
X606000D02*
D03*
Y496000D02*
D03*
X581000D02*
D03*
Y516000D02*
D03*
X631000D02*
D03*
Y496000D02*
D03*
X656000D02*
D03*
Y516000D02*
D03*
X683000Y551000D02*
D03*
Y571000D02*
D03*
X590000Y556000D02*
D03*
Y576000D02*
D03*
X346000Y676000D02*
D03*
Y656000D02*
D03*
X368500D02*
D03*
Y676000D02*
D03*
X426000Y711000D02*
D03*
Y731000D02*
D03*
Y751000D02*
D03*
Y771000D02*
D03*
X449000Y711000D02*
D03*
Y731000D02*
D03*
Y751000D02*
D03*
Y771000D02*
D03*
X501000Y658500D02*
D03*
Y678500D02*
D03*
X526000D02*
D03*
Y658500D02*
D03*
X556000Y651000D02*
D03*
Y671000D02*
D03*
X581000Y651000D02*
D03*
Y671000D02*
D03*
X590000Y626000D02*
D03*
Y606000D02*
D03*
X606000Y651000D02*
D03*
Y671000D02*
D03*
X631000Y651000D02*
D03*
Y671000D02*
D03*
X656000Y651000D02*
D03*
Y671000D02*
D03*
X683000Y626000D02*
D03*
Y606000D02*
D03*
X681000Y651000D02*
D03*
Y671000D02*
D03*
D25*
X74500Y191500D02*
D03*
Y201000D02*
D03*
Y210500D02*
D03*
X47500D02*
D03*
Y191500D02*
D03*
Y201000D02*
D03*
D26*
X78400Y320600D02*
X191000D01*
M02*
